<svg width="29" height="20" viewBox="0 0 29 20" fill="none" xmlns="http://www.w3.org/2000/svg">
<path d="M24.3498 10.0704C22.2248 13.4753 18.7242 12.8528 18.7242 12.8528C18.7242 12.8528 17.0816 11.0943 17.9084 8.3284C17.9895 8.0577 18.0944 7.77965 18.2233 7.49238C18.7739 6.28255 19.586 5.43364 20.4662 4.79834C20.9432 4.45583 21.4385 4.17592 21.921 3.93654H21.9228C23.2634 3.2773 24.5137 2.93479 25.0164 2.43207C25.0993 2.34921 25.2411 2.38419 25.2669 2.50205C25.3755 2.96609 25.5689 3.91812 25.5891 5.09297C25.6149 6.58454 25.3737 8.42968 24.348 10.0741L24.3498 10.0704Z" fill="#71C055"/>
<g style="mix-blend-mode:multiply" opacity="0.4">
<path d="M24.3498 10.0705C22.2248 13.4754 18.7242 12.853 18.7242 12.853C18.7242 12.853 17.0816 11.0944 17.9084 8.32853C17.914 8.42244 18.0539 10.9342 19.0962 11.7407C19.0962 11.7407 23.7403 11.715 25.3055 6.32134L22.4513 7.71901C22.4513 7.71901 21.0757 5.7284 20.4662 4.79662C20.8879 4.49278 21.3262 4.23866 21.7571 4.01953C21.7571 4.01953 22.6078 4.96419 23.3039 6.34344C23.3039 6.34344 24.6003 5.89228 25.4455 5.79285C25.4989 5.56635 25.5505 5.33433 25.5928 5.09125C25.6186 6.58283 25.3774 8.42796 24.3517 10.0724L24.3498 10.0705Z" fill="#71C055"/>
</g>
<path d="M25.0702 2.59375C24.991 4.45362 23.6817 5.9765 22.4737 7.28024C20.7409 9.27269 19.358 11.5782 18.4262 14.0476L18.0469 13.8984C19.067 11.4198 20.5328 9.13274 22.3485 7.16791C23.5878 5.9102 24.9357 4.44073 25.0702 2.59375Z" fill="#5D7513"/>
<path d="M10.0345 15.9823C10.0345 15.9823 8.74921 16.811 6.94091 16.7244C5.99256 16.682 4.90058 16.3856 3.77361 15.5882C2.60429 14.7596 1.78853 13.6639 1.21952 12.5885C1.21584 12.5867 1.21584 12.5848 1.214 12.583C1.01512 12.2073 0.849389 11.8335 0.705756 11.4744C0.271173 10.3843 0.0815026 9.43042 0.00232016 8.96269C-0.0179358 8.84484 0.0980747 8.75645 0.208562 8.80064C0.795985 9.04003 1.88797 8.93323 3.18067 8.9719C3.33167 8.97558 3.48635 8.98294 3.64471 8.99215H3.64655C4.18426 9.0253 4.7459 9.09159 5.32043 9.22418C5.46591 9.25732 5.60954 9.29599 5.75502 9.33835C6.67022 9.60536 7.58726 10.062 8.43064 10.8428C8.65899 11.0583 8.86338 11.2756 9.04385 11.491C10.8742 13.7247 10.0382 15.9823 10.0382 15.9823H10.0345Z" fill="#71C055"/>
<path d="M0.21875 8.96278C1.05661 10.6146 2.86675 11.4487 4.49644 12.1301C6.93084 13.2423 9.16636 14.7854 11.0631 16.6766L10.7703 16.9602C8.95827 15.0414 6.79273 13.4504 4.42462 12.2811C2.80599 11.5445 1.01057 10.6459 0.21875 8.96094V8.96278Z" fill="#5D7513"/>
<g style="mix-blend-mode:multiply" opacity="0.4">
<path d="M6.93819 16.7252C5.98984 16.6828 4.89786 16.3863 3.77089 15.589C2.60157 14.7603 1.78581 13.6647 1.2168 12.5893C1.94601 13.5873 3.67145 14.6204 3.67145 14.6204C2.68996 12.3757 3.03799 9.71844 3.1761 8.97266C3.3271 8.97634 3.48178 8.98371 3.64015 8.99291H3.64199C4.17969 9.02606 4.74134 9.09235 5.31587 9.22494C5.46134 9.25808 5.60497 9.29675 5.75045 9.33911C6.03771 10.3593 6.61962 12.4567 6.58094 12.6298C6.54412 12.7974 6.84243 15.3091 6.93819 16.727V16.7252Z" fill="#71C055"/>
</g>
<path d="M27.979 7.93364C27.7838 9.41417 27.2682 11.2041 26.0105 12.6754C23.4067 15.7285 20.0368 14.5942 20.0368 14.5942C20.0368 14.5942 18.6741 12.6091 19.9005 9.99791C20.0202 9.74011 20.1657 9.48231 20.3351 9.2153C20.5045 8.95381 20.6868 8.71258 20.8765 8.49344C21.6297 7.62244 22.5264 7.05711 23.4251 6.6612C25.2481 5.85649 27.0896 5.74968 27.8059 5.22303C27.9016 5.15121 28.0342 5.2083 28.0434 5.32799C28.0839 5.80125 28.1337 6.77353 27.9808 7.93733L27.979 7.93364Z" fill="#70931C"/>
<g style="mix-blend-mode:multiply" opacity="0.5">
<path d="M27.979 7.93466C27.7838 9.41519 27.2682 11.2051 26.0105 12.6764C23.4067 15.7295 20.0368 14.5952 20.0368 14.5952C20.0368 14.5952 18.6741 12.6101 19.9005 9.99893C19.8932 10.091 19.6575 12.5972 20.5671 13.5492C20.5671 13.5492 20.9409 13.6026 21.5247 13.5621C21.3424 12.5917 20.9704 9.62696 20.8765 8.49631C21.6297 7.6253 22.5264 7.05997 23.4251 6.66406C23.4251 6.66406 24.9885 9.82215 23.9388 12.9324C25.4083 12.2381 27.0122 10.8184 27.979 7.93835V7.93466Z" fill="#71C055"/>
</g>
<path d="M27.8326 5.38281C27.4772 7.21137 25.958 8.52249 24.5696 9.63288C22.5587 11.3473 20.8498 13.4207 19.5645 15.7244L19.2109 15.52C20.5865 13.2219 22.3764 11.176 24.4646 9.50214C25.877 8.44146 27.4275 7.18928 27.8345 5.38281H27.8326Z" fill="#5D7513"/>
<path d="M23.7383 10.0028C23.7383 10.2514 23.7291 10.4944 23.7088 10.7375C23.4602 13.879 21.6464 16.6154 19.0794 18.2856C17.586 19.2579 15.8348 19.8674 13.9915 19.9816H13.9602C13.7576 19.9945 13.5532 20 13.3525 20C13.2715 20 13.1904 20 13.1113 19.9982C11.2367 19.954 9.49281 19.396 8.01228 18.4587C5.40294 16.8088 3.61305 13.9858 3.37735 10.7338C3.36077 10.4926 3.35156 10.2495 3.35156 10.0009C3.35156 9.10045 3.46942 8.2276 3.69408 7.39895C4.27966 5.22236 5.58341 3.33855 7.33278 2.01823C9.00666 0.751313 11.0912 0 13.3525 0C17.9837 0 22.1509 3.15072 23.3737 7.42657C23.3921 7.49102 23.4105 7.55732 23.4271 7.62177C23.4363 7.65123 23.4455 7.67885 23.451 7.70831C23.4528 7.71752 23.4565 7.72673 23.4584 7.73778C23.6388 8.46515 23.7383 9.22199 23.7383 10.0028Z" fill="#71C055"/>
<path opacity="0.7" d="M20.3845 6.41768C20.5649 7.0806 21.528 7.01983 21.7692 7.68276C22.0105 8.34568 22.2517 9.91091 22.0712 10.874C21.8908 11.8371 21.83 13.1021 21.0474 14.6287C20.2648 16.1553 19.4821 16.5346 18.9997 16.8348C18.5172 17.1368 18.578 16.7151 18.0366 15.5697C17.4952 14.4261 17.1325 13.4612 16.0497 12.198C14.9651 10.9329 14.6041 11.4154 14.002 10.003C13.3998 8.59059 13.3998 8.5243 13.5435 7.98291C13.6908 7.44153 14.6041 7.26107 15.3868 6.41768C16.1694 5.5743 15.7477 5.09368 16.5911 4.18952C17.4345 3.28537 17.4345 3.58737 17.254 2.80475C17.0735 2.02214 17.0128 1.96137 15.6888 1.77907C14.3648 1.5986 14.002 0.817827 13.5453 0.998289C13.0905 1.17875 12.3778 1.05906 11.5344 1.05906C10.6911 1.05906 10.5714 1.96321 9.84767 2.36465C9.12583 2.76424 8.48132 2.44383 8.0007 2.36465C7.79814 2.3315 7.54955 2.18234 7.33594 2.02214C9.00982 0.755217 11.0943 0.00390625 13.3556 0.00390625C17.9869 0.00390625 22.1541 3.15463 23.3768 7.43048C23.3952 7.49493 23.4136 7.56122 23.4302 7.62567C23.1411 6.76019 21.2186 6.414 20.8706 6.29798C20.5097 6.17829 20.2077 5.7566 20.3881 6.41768H20.3845Z" fill="#70931C"/>
<path opacity="0.7" d="M13.9602 19.9807C13.7576 19.9936 13.5532 19.9991 13.3525 19.9991C13.2715 19.9991 13.1904 19.9991 13.1113 19.9972C11.2367 19.953 9.49281 19.3951 8.01228 18.4578C5.40294 16.8078 3.61305 13.9849 3.37735 10.7329C3.36077 10.4917 3.35156 10.2486 3.35156 10C3.35156 10 3.7438 11.9538 4.30544 12.5559C4.86708 13.1581 5.26851 12.9574 5.79149 13.4785C6.31262 14.0015 6.27395 14.7233 6.83375 15.0437C7.39539 15.366 7.11549 16.2775 7.59795 16.9257C8.08041 17.5739 8.27929 17.5739 8.96063 18.2571C9.64381 18.9384 10.2846 19.3417 10.8076 19.0599C11.3306 18.7782 11.6105 19.4024 12.4133 19.152C13.2033 18.9034 13.5624 19.9807 13.9565 19.9807H13.9602Z" fill="#70931C"/>
<g style="mix-blend-mode:screen" opacity="0.3">
<path d="M15.3792 6.34363C15.3792 6.46332 15.3737 6.57934 15.3645 6.69535C15.2448 8.2035 14.3756 9.51645 13.1419 10.3193C12.4255 10.7871 11.584 11.0798 10.7001 11.1332H10.6854C10.5878 11.1388 10.4902 11.1425 10.3944 11.1425C10.3557 11.1425 10.3171 11.1425 10.2784 11.1425C9.37977 11.1222 8.54191 10.8533 7.83111 10.404C6.57893 9.61221 5.71896 8.2569 5.60664 6.69535C5.59927 6.57934 5.59375 6.46332 5.59375 6.34363C5.59375 5.91089 5.65083 5.49288 5.75764 5.09513C6.03938 4.04918 6.66363 3.14503 7.50518 2.51157C8.30805 1.90389 9.30979 1.54297 10.3944 1.54297C12.617 1.54297 14.6187 3.0548 15.2043 5.10802C15.2135 5.13932 15.2209 5.17063 15.2301 5.20193C15.2356 5.21666 15.2393 5.22955 15.2411 5.24428C15.2411 5.24981 15.243 5.25349 15.2448 5.25902C15.3313 5.60889 15.3792 5.97166 15.3792 6.34547V6.34363Z" fill="#71C055"/>
</g>
<g style="mix-blend-mode:multiply" opacity="0.3">
<path d="M23.7383 10.0016C23.7383 10.2502 23.7291 10.4932 23.7088 10.7363C23.4602 13.8778 21.6464 16.6142 19.0794 18.2844C17.586 19.2567 15.8348 19.8662 13.9915 19.9804H13.9602C13.7576 19.9933 13.5532 19.9988 13.3525 19.9988C13.2715 19.9988 13.1904 19.9988 13.1113 19.997C11.2367 19.9528 9.49281 19.3948 8.01228 18.4575C5.40294 16.8076 3.61305 13.9846 3.37735 10.7326C3.36077 10.4914 3.35156 10.2483 3.35156 9.99974C3.35156 9.09927 3.46942 8.22642 3.69408 7.39776C4.0016 6.24686 4.51352 5.17697 5.18749 4.23047C4.98677 4.67058 4.82104 5.1291 4.69398 5.60419C4.49142 6.34814 4.38646 7.13075 4.38646 7.94099C4.38646 8.16565 4.39567 8.38478 4.4104 8.59839C4.62216 11.5208 6.2316 14.0583 8.57576 15.5407C9.90713 16.384 11.4742 16.8849 13.1573 16.9236C13.2291 16.9254 13.3009 16.9254 13.3746 16.9254C13.555 16.9254 13.7392 16.9181 13.9197 16.9089H13.9491C15.6064 16.8076 17.179 16.2588 18.5214 15.3841C20.8288 13.8834 22.4566 11.425 22.6813 8.60207C22.6978 8.38478 22.7071 8.16565 22.7071 7.94283C22.7071 7.24124 22.6187 6.56174 22.4548 5.90987C22.4548 5.90066 22.4529 5.89146 22.4493 5.88409C22.4437 5.85831 22.4345 5.83069 22.4272 5.80675C22.4106 5.74598 22.3959 5.6889 22.3793 5.63181C22.267 5.2359 22.127 4.85288 21.9576 4.48275C22.5892 5.37401 23.0735 6.36655 23.3755 7.42907C23.3939 7.49352 23.4123 7.55981 23.4289 7.62426C23.4381 7.65372 23.4473 7.68135 23.4528 7.71081C23.4547 7.72002 23.4584 7.72923 23.4602 7.74027C23.6407 8.46765 23.7401 9.22448 23.7401 10.0053L23.7383 10.0016Z" fill="#71C055"/>
</g>
</svg>
