<?xml version="1.0" encoding="UTF-8" standalone="no" ?>
<!DOCTYPE svg PUBLIC "-//W3C//DTD SVG 1.1//EN" "http://www.w3.org/Graphics/SVG/1.1/DTD/svg11.dtd">
<svg xmlns="http://www.w3.org/2000/svg" xmlns:xlink="http://www.w3.org/1999/xlink" version="1.1" width="1280" height="1024" viewBox="0 0 1280 1024" xml:space="preserve">
<desc>Created with Fabric.js 5.3.0</desc>
<defs>
</defs>
<g transform="matrix(1 0 0 1 640 512)" id="background-logo"  >
<rect style="stroke: none; stroke-width: 0; stroke-dasharray: none; stroke-linecap: butt; stroke-dashoffset: 0; stroke-linejoin: miter; stroke-miterlimit: 4; fill: rgb(17,27,74); fill-rule: nonzero; opacity: 1;"  paint-order="stroke"  x="-640" y="-512" rx="0" ry="0" width="1280" height="1024" />
</g>
<g transform="matrix(1.9211538461538462 0 0 1.9211538461538462 640.030051512109 523.8260435382032)" id="text-logo"  >
<g style=""  paint-order="stroke"   >
		<g transform="matrix(1 0 0 1 0 0)" id="text-logo-path-0"  >
<path style="stroke: none; stroke-width: 6.1607103903183225; stroke-dasharray: none; stroke-linecap: butt; stroke-dashoffset: 0; stroke-linejoin: miter; stroke-miterlimit: 4; fill: rgb(17,179,160); fill-rule: nonzero; opacity: 1;"  paint-order="stroke"  transform=" translate(-181.605, 32.81999999999999)" d="M 6.38 -8.84 L 6.38 -8.84 L 6.38 -45.84 Q 6.38 -49.15 7.82 -51.26 Q 9.27 -53.36 11.73 -55.05 L 11.73 -55.05 Q 15.94 -58 22.26 -59.86 Q 28.58 -61.73 36.34 -61.73 L 36.34 -61.73 Q 50.24 -61.73 57.76 -55.62 Q 65.28 -49.51 65.28 -38.68 L 65.28 -38.68 L 65.28 -0.12 Q 64.07 0.24 61.43 0.6 Q 58.78 0.96 55.95 0.96 L 55.95 0.96 Q 53.24 0.96 51.08 0.6 Q 48.91 0.24 47.44 -0.87 Q 45.96 -1.99 45.15 -3.88 Q 44.34 -5.78 44.34 -8.84 L 44.34 -8.84 L 44.34 -37.96 Q 44.34 -41.75 42.2 -43.56 Q 40.07 -45.36 36.34 -45.36 L 36.34 -45.36 Q 33.87 -45.36 31.47 -44.73 Q 29.06 -44.1 27.37 -42.9 L 27.37 -42.9 L 27.37 -0.12 Q 26.17 0.24 23.49 0.6 Q 20.82 0.96 17.99 0.96 L 17.99 0.96 Q 15.28 0.96 13.12 0.6 Q 10.95 0.24 9.48 -0.87 Q 8 -1.99 7.19 -3.88 Q 6.38 -5.78 6.38 -8.84 Z M 75.56 -30.8 L 75.56 -30.8 Q 75.56 -38.93 78.24 -44.79 Q 80.92 -50.66 85.22 -54.42 Q 89.52 -58.18 95.06 -59.95 Q 100.59 -61.73 106.37 -61.73 L 106.37 -61.73 Q 112.93 -61.73 118.28 -59.77 Q 123.64 -57.82 127.52 -54.36 Q 131.4 -50.9 133.56 -46.09 Q 135.73 -41.27 135.73 -35.62 L 135.73 -35.62 Q 135.73 -31.41 133.38 -29.21 Q 131.04 -27.01 126.82 -26.35 L 126.82 -26.35 L 96.44 -21.78 Q 97.83 -17.69 101.98 -15.67 Q 106.13 -13.66 111.6 -13.66 L 111.6 -13.66 Q 116.66 -13.66 121.14 -14.95 Q 125.62 -16.24 128.45 -17.99 L 128.45 -17.99 Q 130.43 -16.79 131.79 -14.56 Q 133.14 -12.33 133.14 -9.87 L 133.14 -9.87 Q 133.14 -4.33 127.97 -1.62 L 127.97 -1.62 Q 124 0.48 119.09 1.23 Q 114.19 1.99 109.86 1.99 L 109.86 1.99 Q 102.58 1.99 96.35 -0.06 Q 90.12 -2.11 85.52 -6.17 Q 80.92 -10.23 78.24 -16.39 Q 75.56 -22.56 75.56 -30.8 Z M 94.94 -35.62 L 94.94 -35.62 L 115.99 -39.05 Q 115.63 -41.51 113.29 -43.98 Q 110.94 -46.45 106.37 -46.45 L 106.37 -46.45 Q 103.42 -46.45 101.28 -45.45 Q 99.15 -44.46 97.8 -42.93 Q 96.44 -41.39 95.75 -39.5 Q 95.06 -37.6 94.94 -35.62 Z M 146.08 -19.07 L 146.08 -19.07 L 146.08 -71.83 Q 147.46 -72.2 149.96 -72.62 Q 152.45 -73.04 155.28 -73.04 L 155.28 -73.04 Q 160.7 -73.04 163.73 -71.14 Q 166.77 -69.25 166.77 -63.11 L 166.77 -63.11 L 166.77 -55.23 L 182.9 -55.23 Q 183.62 -53.85 184.31 -51.8 Q 185 -49.75 185 -47.29 L 185 -47.29 Q 185 -42.96 183.08 -41.06 Q 181.15 -39.17 177.96 -39.17 L 177.96 -39.17 L 166.77 -39.17 L 166.77 -20.58 Q 166.77 -17.39 168.79 -16.03 Q 170.8 -14.68 174.53 -14.68 L 174.53 -14.68 Q 176.4 -14.68 178.35 -14.98 Q 180.31 -15.28 181.81 -15.76 L 181.81 -15.76 Q 182.9 -14.38 183.71 -12.72 Q 184.52 -11.07 184.52 -8.72 L 184.52 -8.72 Q 184.52 -4.03 181 -1.08 Q 177.48 1.87 168.58 1.87 L 168.58 1.87 Q 157.75 1.87 151.91 -3.07 Q 146.08 -8 146.08 -19.07 Z M 192.1 -18.11 L 192.1 -18.11 Q 192.1 -26.59 197.15 -31.16 Q 202.21 -35.74 212.8 -36.82 L 212.8 -36.82 L 228.98 -38.56 L 228.98 -39.41 Q 228.98 -42.96 225.82 -44.52 Q 222.66 -46.09 216.77 -46.09 L 216.77 -46.09 Q 212.08 -46.09 207.65 -45.09 Q 203.23 -44.1 199.62 -42.66 L 199.62 -42.66 Q 198 -43.74 196.91 -46.02 Q 195.83 -48.31 195.83 -50.78 L 195.83 -50.78 Q 195.83 -53.97 197.37 -55.89 Q 198.9 -57.82 202.09 -59.14 L 202.09 -59.14 Q 205.64 -60.52 210.51 -61.13 Q 215.38 -61.73 219.72 -61.73 L 219.72 -61.73 Q 226.39 -61.73 231.87 -60.37 Q 237.34 -59.02 241.22 -56.25 Q 245.1 -53.49 247.21 -49.24 Q 249.32 -45 249.32 -39.17 L 249.32 -39.17 L 249.32 -11.61 Q 249.32 -8.42 247.51 -6.38 Q 245.71 -4.33 243.24 -2.83 L 243.24 -2.83 Q 235.24 1.99 220.68 1.99 L 220.68 1.99 Q 214.12 1.99 208.92 0.75 Q 203.71 -0.48 199.95 -2.95 Q 196.19 -5.41 194.15 -9.24 Q 192.1 -13.06 192.1 -18.11 Z M 212.32 -18.83 L 212.32 -18.83 Q 212.32 -16.36 214.21 -14.83 Q 216.11 -13.3 220.68 -13.3 L 220.68 -13.3 Q 222.78 -13.3 225.31 -13.75 Q 227.84 -14.2 229.1 -14.92 L 229.1 -14.92 L 229.1 -24.79 L 220.2 -24.01 Q 216.77 -23.76 214.54 -22.53 Q 212.32 -21.3 212.32 -18.83 Z M 259.48 -29.6 L 259.48 -29.6 Q 259.48 -37.36 261.95 -43.32 Q 264.42 -49.27 268.93 -53.39 Q 273.44 -57.52 279.79 -59.62 Q 286.14 -61.73 293.9 -61.73 L 293.9 -61.73 Q 300.82 -61.73 306.83 -59.89 Q 312.85 -58.06 316.1 -55.83 L 316.1 -55.83 Q 318.56 -54.09 319.98 -51.86 Q 321.39 -49.63 321.39 -46.33 L 321.39 -46.33 L 321.39 20.7 Q 320.19 21.06 317.45 21.51 Q 314.71 21.96 311.89 21.96 L 311.89 21.96 Q 309.18 21.96 307.01 21.57 Q 304.85 21.18 303.37 20.06 Q 301.9 18.95 301.15 17.06 Q 300.39 15.16 300.39 12.09 L 300.39 12.09 L 300.39 0.36 Q 298.29 1.2 295.73 1.59 Q 293.18 1.99 290.47 1.99 L 290.47 1.99 Q 283.91 1.99 278.25 0.06 Q 272.6 -1.87 268.39 -5.81 Q 264.18 -9.75 261.83 -15.64 Q 259.48 -21.54 259.48 -29.6 Z M 280.72 -29.84 L 280.72 -29.84 Q 280.72 -21.72 284.15 -18.14 Q 287.58 -14.56 293.9 -14.56 L 293.9 -14.56 Q 298.11 -14.56 300.52 -16.24 L 300.52 -16.24 L 300.52 -44.1 Q 299.43 -44.58 297.96 -44.97 Q 296.48 -45.36 294.5 -45.36 L 294.5 -45.36 Q 287.82 -45.36 284.27 -41.48 Q 280.72 -37.6 280.72 -29.84 Z M 333.91 -76.53 L 333.91 -76.53 Q 333.91 -81.22 337.06 -84.41 Q 340.22 -87.6 345.4 -87.6 L 345.4 -87.6 Q 350.57 -87.6 353.7 -84.41 Q 356.83 -81.22 356.83 -76.53 L 356.83 -76.53 Q 356.83 -71.83 353.7 -68.62 Q 350.57 -65.4 345.4 -65.4 L 345.4 -65.4 Q 340.22 -65.4 337.06 -68.62 Q 333.91 -71.83 333.91 -76.53 Z M 334.93 -8.84 L 334.93 -8.84 L 334.93 -59.02 Q 336.31 -59.26 338.93 -59.68 Q 341.55 -60.1 344.25 -60.1 L 344.25 -60.1 Q 346.96 -60.1 349.13 -59.74 Q 351.29 -59.38 352.77 -58.27 Q 354.24 -57.16 355.05 -55.26 Q 355.87 -53.36 355.87 -50.3 L 355.87 -50.3 L 355.87 -0.12 Q 354.48 0.12 351.83 0.54 Q 349.19 0.96 346.48 0.96 L 346.48 0.96 Q 343.77 0.96 341.61 0.6 Q 339.44 0.24 337.97 -0.87 Q 336.49 -1.99 335.71 -3.88 Q 334.93 -5.78 334.93 -8.84 Z" stroke-linecap="round" />
</g>
</g>
</g>
<g transform="matrix(1.9211538461538462 0 0 1.9211538461538462 424.06584896579784 635.0396823597814)" id="tagline-2c2c3817-0226-4ba1-8c8d-a05078e83dcd-logo"  >
<g style=""  paint-order="stroke"   >
		<g transform="matrix(1 0 0 1 -2.842171e-14 0)" id="tagline-2c2c3817-0226-4ba1-8c8d-a05078e83dcd-logo-path-0"  >
<path style="stroke: none; stroke-width: 0; stroke-dasharray: none; stroke-linecap: butt; stroke-dashoffset: 0; stroke-linejoin: miter; stroke-miterlimit: 4; fill: rgb(255,255,255); fill-rule: nonzero; opacity: 1;"  paint-order="stroke"  transform=" translate(-59.64, 7.605)" d="M 8.94 -12.72 C 11.97 -12.72 14.16 -10.53 14.16 -7.5 C 14.16 -4.47 11.97 -2.28 8.94 -2.28 C 5.91 -2.28 3.72 -4.47 3.72 -7.5 C 3.72 -10.53 5.91 -12.72 8.94 -12.72 Z M 1.32 -7.23 L 1.32 -7.05 C 1.56 -3.06 4.89 0.12 8.94 0.12 C 13.14 0.12 16.56 -3.3 16.56 -7.5 C 16.56 -11.7 13.14 -15.12 8.94 -15.12 C 6.93 -15.12 5.07 -14.34 3.72 -13.05 L 3.72 -19.92 C 3.72 -20.58 3.18 -21.12 2.52 -21.12 C 1.86 -21.12 1.32 -20.58 1.32 -19.92 Z M 19.2 -13.92 L 19.2 -6.66 C 19.2 -2.91 22.23 0.12 25.98 0.12 C 27.66 0.12 29.19 -0.48 30.36 -1.47 L 30.36 -0.72 C 30.36 1.74 28.32 3.51 25.35 3.51 C 23.61 3.51 22.29 2.91 21.36 1.83 C 21.15 1.59 20.82 1.41 20.46 1.41 C 19.8 1.41 19.26 1.95 19.26 2.61 C 19.26 2.91 19.38 3.18 19.56 3.39 C 20.94 4.95 23.01 5.91 25.35 5.91 C 29.4 5.91 32.76 3 32.76 -0.72 L 32.76 -13.92 C 32.76 -14.58 32.22 -15.12 31.56 -15.12 C 30.9 -15.12 30.36 -14.58 30.36 -13.92 L 30.36 -6.03 C 30.33 -5.94 30.3 -5.88 30.3 -5.79 C 29.94 -3.69 28.26 -2.28 25.98 -2.28 C 23.4 -2.28 21.6 -4.08 21.6 -6.66 L 21.6 -13.92 C 21.6 -14.58 21.06 -15.12 20.4 -15.12 C 19.74 -15.12 19.2 -14.58 19.2 -13.92 Z M 49.02 -2.28 C 45.99 -2.28 43.8 -4.47 43.8 -7.5 C 43.8 -10.53 45.99 -12.72 49.02 -12.72 C 52.05 -12.72 54.24 -10.53 54.24 -7.5 C 54.24 -4.47 52.05 -2.28 49.02 -2.28 Z M 41.4 -7.5 C 41.4 -3.3 44.82 0.12 49.02 0.12 C 51.03 0.12 52.89 -0.66 54.24 -1.95 L 54.24 -1.08 C 54.24 -0.42 54.78 0.12 55.44 0.12 C 56.1 0.12 56.64 -0.42 56.64 -1.08 L 56.64 -7.77 L 56.64 -7.95 C 56.4 -11.94 53.07 -15.12 49.02 -15.12 C 44.82 -15.12 41.4 -11.7 41.4 -7.5 Z M 70.41 -13.92 L 70.41 -6.66 C 70.41 -4.08 68.61 -2.28 66.06 -2.28 C 63.48 -2.28 61.68 -4.08 61.68 -6.66 L 61.68 -13.92 C 61.68 -14.58 61.14 -15.12 60.48 -15.12 C 59.82 -15.12 59.28 -14.58 59.28 -13.92 L 59.28 -6.66 C 59.28 -2.91 62.31 0.12 66.06 0.12 C 69.78 0.12 72.81 -2.91 72.81 -6.66 L 72.81 -13.92 C 72.81 -14.58 72.27 -15.12 71.61 -15.12 C 70.95 -15.12 70.41 -14.58 70.41 -13.92 Z M 77.85 -1.08 L 77.85 -8.34 C 77.85 -10.92 79.65 -12.72 82.23 -12.72 C 83.13 -12.72 83.88 -12.51 84.54 -12.06 C 84.72 -11.94 84.96 -11.88 85.2 -11.88 C 85.86 -11.88 86.37 -12.42 86.37 -13.08 C 86.37 -13.5 86.16 -13.86 85.83 -14.1 C 84.78 -14.73 83.55 -15.12 82.23 -15.12 C 78.48 -15.12 75.45 -12.09 75.45 -8.34 L 75.45 -1.08 C 75.45 -0.42 75.99 0.12 76.65 0.12 C 77.31 0.12 77.85 -0.42 77.85 -1.08 Z M 95.43 -2.28 C 92.4 -2.28 90.21 -4.47 90.21 -7.5 C 90.21 -10.53 92.4 -12.72 95.43 -12.72 C 98.46 -12.72 100.65 -10.53 100.65 -7.5 C 100.65 -4.47 98.46 -2.28 95.43 -2.28 Z M 87.81 -7.5 C 87.81 -3.3 91.23 0.12 95.43 0.12 C 97.44 0.12 99.3 -0.66 100.65 -1.95 L 100.65 -1.08 C 100.65 -0.42 101.19 0.12 101.85 0.12 C 102.51 0.12 103.05 -0.42 103.05 -1.08 L 103.05 -7.77 L 103.05 -7.95 C 102.81 -11.94 99.48 -15.12 95.43 -15.12 C 91.23 -15.12 87.81 -11.7 87.81 -7.5 Z M 105.96 -2.82 C 107.43 -0.93 109.62 0.12 111.99 0.12 C 114.84 0.12 117.96 -1.38 117.96 -4.35 C 117.96 -7.29 115.47 -7.92 112.29 -8.58 C 110.04 -9.06 108.75 -9.36 108.75 -10.74 C 108.75 -11.97 109.65 -12.72 111.9 -12.72 C 113.49 -12.72 114.45 -12.21 115.2 -11.43 C 115.44 -11.22 115.74 -11.07 116.07 -11.07 C 116.73 -11.07 117.27 -11.61 117.27 -12.27 C 117.27 -12.6 117.12 -12.9 116.91 -13.14 C 115.8 -14.22 114.21 -15.12 111.9 -15.12 C 108.54 -15.12 106.35 -13.23 106.35 -10.74 C 106.35 -7.47 109.47 -6.72 111.81 -6.24 C 114.3 -5.73 115.56 -5.52 115.56 -4.35 C 115.56 -3 114.15 -2.28 111.99 -2.28 C 110.25 -2.28 108.87 -2.91 107.85 -4.26 C 107.61 -4.56 107.28 -4.74 106.89 -4.74 C 106.23 -4.74 105.69 -4.2 105.69 -3.54 C 105.69 -3.27 105.78 -3 105.96 -2.82 Z" stroke-linecap="round" />
</g>
</g>
</g>
<g transform="matrix(0.2437623457287631 0 0 0.2437623457287631 954.7010930375409 440.72507716078036)" id="shape-983c6327-c718-4131-af19-71a181393350"  >
<g style=""  paint-order="stroke"   >
		<g transform="matrix(1 0 0 1 0 0)" id="Layer_1"  >
<path style="stroke: none; stroke-width: 1; stroke-dasharray: none; stroke-linecap: butt; stroke-dashoffset: 0; stroke-linejoin: miter; stroke-miterlimit: 4; fill: rgb(255,255,255); fill-rule: nonzero; opacity: 1;"  paint-order="stroke"  transform=" translate(-100, -100)" d="M 200 100 C 200 155.22847498307934 155.22847498307934 200 100 200 C 44.771525016920656 200 0 155.22847498307934 0 100 C 0 44.771525016920656 44.771525016920656 0 100 0 C 155.22847498307934 0 200 44.77152501692063 200 99.99999999999997 Z" stroke-linecap="round" />
</g>
</g>
</g>
</svg>