<svg xmlns="http://www.w3.org/2000/svg" xmlns:xlink="http://www.w3.org/1999/xlink" width="60" zoomAndPan="magnify" viewBox="0 0 45 44.999999" height="60" preserveAspectRatio="xMidYMid meet" version="1.0"><defs><clipPath id="b8de8eeebc"><path d="M 4.710938 8.800781 L 39.960938 8.800781 L 39.960938 36.550781 L 4.710938 36.550781 Z M 4.710938 8.800781 " clip-rule="nonzero"/></clipPath></defs><g clip-path="url(#b8de8eeebc)"><path fill="#26d5dc" d="M 35.738281 8.796875 L 23.902344 8.796875 C 23.613281 8.796875 23.324219 8.824219 23.039062 8.882812 C 22.753906 8.9375 22.476562 9.023438 22.207031 9.132812 C 21.9375 9.246094 21.683594 9.378906 21.441406 9.542969 C 21.199219 9.703125 20.972656 9.886719 20.765625 10.09375 C 20.5625 10.296875 20.378906 10.523438 20.214844 10.765625 C 20.054688 11.007812 19.917969 11.261719 19.804688 11.53125 C 19.695312 11.796875 19.609375 12.074219 19.550781 12.359375 C 19.496094 12.648438 19.464844 12.933594 19.464844 13.226562 L 19.464844 15.675781 L 9.300781 15.675781 C 9.007812 15.675781 8.71875 15.703125 8.433594 15.761719 C 8.148438 15.816406 7.871094 15.902344 7.601562 16.015625 C 7.335938 16.125 7.078125 16.261719 6.835938 16.425781 C 6.59375 16.585938 6.371094 16.769531 6.164062 16.976562 C 5.960938 17.183594 5.777344 17.40625 5.613281 17.648438 C 5.453125 17.890625 5.316406 18.144531 5.203125 18.414062 C 5.09375 18.683594 5.007812 18.960938 4.953125 19.246094 C 4.894531 19.53125 4.867188 19.820312 4.867188 20.113281 L 4.867188 26.835938 C 4.867188 27.371094 4.960938 27.890625 5.148438 28.390625 C 5.335938 28.890625 5.605469 29.34375 5.957031 29.746094 C 6.308594 30.148438 6.71875 30.476562 7.1875 30.730469 C 7.660156 30.988281 8.15625 31.152344 8.6875 31.226562 L 8.6875 35.542969 C 8.6875 35.785156 8.792969 35.960938 9.003906 36.078125 C 9.214844 36.191406 9.421875 36.1875 9.625 36.058594 L 17.214844 31.265625 L 21.164062 31.265625 C 21.453125 31.265625 21.742188 31.234375 22.023438 31.175781 C 22.308594 31.121094 22.585938 31.035156 22.851562 30.921875 C 23.121094 30.8125 23.375 30.675781 23.613281 30.511719 C 23.855469 30.351562 24.078125 30.167969 24.28125 29.960938 C 24.488281 29.757812 24.667969 29.53125 24.832031 29.292969 C 24.992188 29.050781 25.125 28.796875 25.238281 28.527344 C 25.347656 28.257812 25.429688 27.984375 25.488281 27.699219 C 25.542969 27.414062 25.574219 27.128906 25.574219 26.835938 L 25.574219 24.390625 L 27.84375 24.390625 L 35.40625 29.171875 C 35.503906 29.234375 35.613281 29.265625 35.730469 29.265625 C 35.835938 29.265625 35.9375 29.242188 36.027344 29.191406 C 36.238281 29.074219 36.34375 28.894531 36.34375 28.652344 L 36.34375 24.339844 C 36.871094 24.265625 37.371094 24.101562 37.84375 23.847656 C 38.3125 23.589844 38.722656 23.261719 39.074219 22.859375 C 39.425781 22.457031 39.691406 22.003906 39.882812 21.503906 C 40.070312 21.003906 40.164062 20.488281 40.164062 19.953125 L 40.164062 13.226562 C 40.164062 12.933594 40.132812 12.648438 40.078125 12.363281 C 40.019531 12.078125 39.9375 11.800781 39.824219 11.535156 C 39.714844 11.265625 39.578125 11.011719 39.414062 10.769531 C 39.253906 10.527344 39.070312 10.304688 38.867188 10.097656 C 38.660156 9.894531 38.4375 9.710938 38.195312 9.546875 C 37.953125 9.386719 37.699219 9.25 37.429688 9.136719 C 37.164062 9.027344 36.886719 8.941406 36.601562 8.882812 C 36.316406 8.828125 36.03125 8.796875 35.738281 8.796875 Z M 24.347656 26.835938 C 24.347656 27.261719 24.265625 27.671875 24.101562 28.0625 C 23.941406 28.457031 23.707031 28.800781 23.410156 29.101562 C 23.109375 29.402344 22.761719 29.632812 22.371094 29.796875 C 21.976562 29.960938 21.570312 30.042969 21.144531 30.042969 L 17.015625 30.042969 C 16.898438 30.039062 16.789062 30.074219 16.6875 30.140625 L 9.914062 34.429688 L 9.914062 30.636719 C 9.914062 30.46875 9.855469 30.324219 9.738281 30.203125 C 9.617188 30.085938 9.472656 30.023438 9.304688 30.023438 C 8.878906 30.023438 8.46875 29.941406 8.078125 29.78125 C 7.683594 29.617188 7.339844 29.386719 7.039062 29.085938 C 6.738281 28.785156 6.503906 28.4375 6.34375 28.046875 C 6.179688 27.65625 6.097656 27.246094 6.09375 26.820312 L 6.09375 20.113281 C 6.097656 19.6875 6.179688 19.277344 6.34375 18.886719 C 6.503906 18.492188 6.738281 18.148438 7.039062 17.847656 C 7.339844 17.546875 7.683594 17.316406 8.078125 17.152344 C 8.46875 16.988281 8.878906 16.90625 9.304688 16.90625 L 21.140625 16.90625 C 21.566406 16.90625 21.972656 16.988281 22.367188 17.152344 C 22.757812 17.316406 23.105469 17.546875 23.402344 17.847656 C 23.703125 18.148438 23.9375 18.492188 24.097656 18.886719 C 24.261719 19.277344 24.34375 19.6875 24.34375 20.113281 Z M 38.949219 19.953125 C 38.945312 20.378906 38.863281 20.785156 38.699219 21.179688 C 38.539062 21.570312 38.304688 21.917969 38.003906 22.21875 C 37.703125 22.515625 37.359375 22.75 36.964844 22.910156 C 36.574219 23.074219 36.164062 23.15625 35.738281 23.15625 C 35.570312 23.15625 35.425781 23.214844 35.304688 23.335938 C 35.1875 23.453125 35.128906 23.597656 35.128906 23.769531 L 35.128906 27.542969 L 28.351562 23.253906 C 28.25 23.1875 28.140625 23.15625 28.019531 23.15625 L 25.574219 23.15625 L 25.574219 20.113281 C 25.570312 19.820312 25.542969 19.53125 25.488281 19.246094 C 25.429688 18.960938 25.34375 18.6875 25.234375 18.417969 C 25.121094 18.148438 24.984375 17.894531 24.824219 17.652344 C 24.664062 17.410156 24.480469 17.1875 24.273438 16.980469 C 24.070312 16.777344 23.84375 16.59375 23.601562 16.429688 C 23.363281 16.269531 23.105469 16.132812 22.839844 16.019531 C 22.570312 15.910156 22.292969 15.824219 22.007812 15.769531 C 21.722656 15.710938 21.433594 15.683594 21.144531 15.683594 L 20.691406 15.683594 L 20.691406 13.234375 C 20.691406 12.808594 20.773438 12.402344 20.9375 12.007812 C 21.097656 11.617188 21.332031 11.269531 21.628906 10.96875 C 21.929688 10.667969 22.277344 10.4375 22.667969 10.273438 C 23.0625 10.113281 23.46875 10.03125 23.894531 10.03125 L 35.730469 10.03125 C 36.15625 10.03125 36.566406 10.113281 36.957031 10.273438 C 37.351562 10.4375 37.695312 10.667969 37.996094 10.96875 C 38.296875 11.269531 38.53125 11.617188 38.691406 12.007812 C 38.855469 12.402344 38.9375 12.808594 38.9375 13.234375 Z M 38.949219 19.953125 " fill-opacity="1" fill-rule="nonzero"/></g><path fill="#26d5dc" d="M 15.769531 19.410156 C 15.65625 19.183594 15.472656 19.074219 15.222656 19.074219 C 14.96875 19.074219 14.789062 19.183594 14.675781 19.410156 L 10.898438 26.847656 C 10.8125 26.996094 10.792969 27.15625 10.84375 27.324219 C 10.894531 27.492188 10.996094 27.617188 11.152344 27.695312 C 11.308594 27.773438 11.46875 27.785156 11.632812 27.726562 C 11.800781 27.667969 11.917969 27.558594 11.988281 27.402344 L 13.292969 24.835938 L 17.152344 24.835938 L 18.4375 27.402344 C 18.507812 27.558594 18.628906 27.667969 18.792969 27.726562 C 18.957031 27.785156 19.117188 27.773438 19.273438 27.695312 C 19.429688 27.617188 19.53125 27.492188 19.582031 27.324219 C 19.632812 27.15625 19.613281 26.996094 19.527344 26.847656 Z M 13.910156 23.613281 L 15.222656 21.039062 L 16.527344 23.613281 Z M 13.910156 23.613281 " fill-opacity="1" fill-rule="nonzero"/><path fill="#26d5dc" d="M 33.398438 19.464844 L 31.007812 17.859375 C 31.503906 17.074219 31.914062 16.246094 32.234375 15.375 L 33.050781 15.375 C 33.21875 15.375 33.363281 15.316406 33.484375 15.199219 C 33.601562 15.078125 33.660156 14.933594 33.660156 14.765625 C 33.660156 14.59375 33.601562 14.453125 33.484375 14.332031 C 33.363281 14.210938 33.21875 14.152344 33.050781 14.152344 L 30.578125 14.152344 L 30.578125 12.878906 C 30.578125 12.710938 30.515625 12.566406 30.398438 12.445312 C 30.277344 12.328125 30.132812 12.265625 29.964844 12.265625 C 29.792969 12.265625 29.652344 12.328125 29.53125 12.445312 C 29.410156 12.566406 29.351562 12.710938 29.351562 12.878906 L 29.351562 14.152344 L 26.601562 14.152344 C 26.433594 14.152344 26.289062 14.210938 26.167969 14.332031 C 26.046875 14.453125 25.988281 14.59375 25.988281 14.765625 C 25.988281 14.933594 26.046875 15.078125 26.167969 15.199219 C 26.289062 15.316406 26.433594 15.375 26.601562 15.375 L 30.929688 15.375 C 30.667969 16 30.355469 16.597656 29.992188 17.167969 L 28.453125 16.132812 C 28.3125 16.035156 28.15625 16.007812 27.988281 16.039062 C 27.816406 16.074219 27.6875 16.164062 27.59375 16.308594 C 27.496094 16.449219 27.46875 16.605469 27.5 16.773438 C 27.535156 16.941406 27.625 17.074219 27.769531 17.167969 L 29.285156 18.1875 C 28.808594 18.789062 28.285156 19.34375 27.707031 19.851562 C 27.582031 19.964844 27.511719 20.105469 27.503906 20.273438 C 27.492188 20.441406 27.542969 20.589844 27.65625 20.71875 C 27.769531 20.84375 27.910156 20.910156 28.078125 20.921875 C 28.25 20.933594 28.394531 20.882812 28.523438 20.769531 C 29.179688 20.191406 29.777344 19.5625 30.316406 18.875 L 32.722656 20.507812 C 32.824219 20.574219 32.9375 20.609375 33.0625 20.609375 C 33.363281 20.609375 33.558594 20.464844 33.644531 20.175781 C 33.734375 19.890625 33.652344 19.660156 33.40625 19.492188 Z M 33.398438 19.464844 " fill-opacity="1" fill-rule="nonzero"/></svg>