<svg xmlns="http://www.w3.org/2000/svg" xmlns:xlink="http://www.w3.org/1999/xlink" width="60" zoomAndPan="magnify" viewBox="0 0 45 44.999999" height="60" preserveAspectRatio="xMidYMid meet" version="1.0"><defs><clipPath id="44a77ccee4"><path d="M 15.003906 29.863281 L 38.335938 29.863281 L 38.335938 37.710938 L 15.003906 37.710938 Z M 15.003906 29.863281 " clip-rule="nonzero"/></clipPath><clipPath id="e04fd366da"><path d="M 3.613281 13 L 21 13 L 21 20 L 3.613281 20 Z M 3.613281 13 " clip-rule="nonzero"/></clipPath><clipPath id="d64e7cabdf"><path d="M 18 7.273438 L 37 7.273438 L 37 14 L 18 14 Z M 18 7.273438 " clip-rule="nonzero"/></clipPath><clipPath id="aee5310f11"><path d="M 25.316406 16.972656 L 41.113281 16.972656 L 41.113281 22.554688 L 25.316406 22.554688 Z M 25.316406 16.972656 " clip-rule="nonzero"/></clipPath></defs><g clip-path="url(#44a77ccee4)"><path fill="#26d5dc" d="M 34.390625 36.992188 L 18.9375 36.992188 C 17.175781 36.992188 15.742188 35.554688 15.742188 33.792969 C 15.742188 32.027344 17.175781 30.59375 18.9375 30.59375 L 34.390625 30.59375 C 36.15625 30.59375 37.589844 32.027344 37.589844 33.792969 C 37.589844 35.554688 36.15625 36.992188 34.390625 36.992188 Z M 34.390625 29.875 L 18.9375 29.875 C 16.78125 29.875 15.023438 31.632812 15.023438 33.792969 C 15.023438 35.953125 16.78125 37.710938 18.9375 37.710938 L 34.390625 37.710938 C 36.550781 37.710938 38.308594 35.953125 38.308594 33.792969 C 38.308594 31.632812 36.550781 29.875 34.390625 29.875 " fill-opacity="1" fill-rule="nonzero"/></g><path fill="#26d5dc" d="M 19.777344 34.675781 L 19.070312 34.675781 C 19.023438 34.675781 18.980469 34.695312 18.949219 34.726562 C 18.917969 34.757812 18.898438 34.800781 18.898438 34.847656 L 18.898438 35.554688 C 18.898438 35.601562 18.917969 35.640625 18.949219 35.675781 C 18.980469 35.707031 19.023438 35.722656 19.070312 35.722656 L 19.777344 35.722656 C 19.828125 35.722656 19.871094 35.707031 19.902344 35.675781 C 19.933594 35.640625 19.945312 35.601562 19.945312 35.554688 L 19.945312 34.847656 C 19.945312 34.800781 19.929688 34.757812 19.898438 34.726562 C 19.863281 34.695312 19.824219 34.675781 19.777344 34.675781 " fill-opacity="1" fill-rule="nonzero"/><path fill="#26d5dc" d="M 21.820312 32.960938 C 21.953125 32.8125 22.140625 32.738281 22.378906 32.738281 C 22.558594 32.738281 22.703125 32.777344 22.816406 32.855469 C 22.933594 32.9375 23.027344 33.066406 23.09375 33.242188 C 23.121094 33.300781 23.140625 33.339844 23.164062 33.359375 C 23.1875 33.378906 23.226562 33.390625 23.277344 33.390625 L 23.902344 33.390625 C 23.949219 33.390625 23.992188 33.375 24.027344 33.34375 C 24.0625 33.308594 24.078125 33.269531 24.074219 33.222656 C 24.0625 33.050781 23.996094 32.867188 23.871094 32.679688 C 23.75 32.488281 23.558594 32.328125 23.304688 32.195312 C 23.046875 32.066406 22.734375 32 22.363281 32 C 21.847656 32 21.4375 32.140625 21.132812 32.429688 C 20.824219 32.714844 20.660156 33.109375 20.644531 33.617188 L 20.636719 33.898438 L 20.644531 34.179688 C 20.660156 34.683594 20.824219 35.082031 21.132812 35.367188 C 21.4375 35.652344 21.847656 35.792969 22.363281 35.792969 C 22.746094 35.792969 23.058594 35.726562 23.3125 35.589844 C 23.566406 35.453125 23.753906 35.292969 23.875 35.101562 C 23.996094 34.914062 24.0625 34.734375 24.074219 34.570312 C 24.078125 34.523438 24.0625 34.484375 24.027344 34.453125 C 23.992188 34.417969 23.949219 34.402344 23.902344 34.402344 L 23.277344 34.402344 C 23.226562 34.402344 23.1875 34.414062 23.164062 34.4375 C 23.136719 34.460938 23.113281 34.5 23.09375 34.550781 C 23.027344 34.734375 22.933594 34.863281 22.820312 34.941406 C 22.710938 35.019531 22.5625 35.058594 22.378906 35.058594 C 21.890625 35.058594 21.632812 34.753906 21.605469 34.144531 L 21.597656 33.910156 L 21.605469 33.652344 C 21.613281 33.34375 21.6875 33.113281 21.820312 32.960938 " fill-opacity="1" fill-rule="nonzero"/><path fill="#26d5dc" d="M 27.214844 34.171875 C 27.203125 34.472656 27.132812 34.699219 27 34.851562 C 26.867188 35.007812 26.675781 35.085938 26.425781 35.085938 C 26.179688 35.085938 25.988281 35.007812 25.851562 34.851562 C 25.714844 34.699219 25.640625 34.472656 25.632812 34.171875 L 25.625 33.898438 L 25.632812 33.621094 C 25.640625 33.324219 25.714844 33.09375 25.851562 32.9375 C 25.988281 32.78125 26.179688 32.703125 26.425781 32.703125 C 26.671875 32.703125 26.859375 32.78125 26.996094 32.9375 C 27.132812 33.09375 27.203125 33.324219 27.214844 33.621094 C 27.21875 33.667969 27.222656 33.761719 27.222656 33.898438 C 27.222656 34.03125 27.21875 34.125 27.214844 34.171875 Z M 27.691406 32.425781 C 27.386719 32.140625 26.964844 32 26.425781 32 C 25.882812 32 25.460938 32.140625 25.15625 32.425781 C 24.851562 32.707031 24.6875 33.097656 24.664062 33.585938 L 24.65625 33.898438 L 24.664062 34.207031 C 24.6875 34.703125 24.847656 35.089844 25.148438 35.371094 C 25.449219 35.652344 25.875 35.792969 26.425781 35.792969 C 26.976562 35.792969 27.398438 35.652344 27.699219 35.371094 C 28 35.089844 28.160156 34.703125 28.183594 34.207031 C 28.1875 34.148438 28.191406 34.046875 28.191406 33.898438 C 28.191406 33.746094 28.1875 33.644531 28.183594 33.585938 C 28.160156 33.097656 27.996094 32.707031 27.691406 32.425781 " fill-opacity="1" fill-rule="nonzero"/><path fill="#26d5dc" d="M 33.117188 32 C 32.878906 32 32.65625 32.058594 32.449219 32.171875 C 32.242188 32.285156 32.085938 32.4375 31.972656 32.625 C 31.765625 32.207031 31.402344 32 30.882812 32 C 30.457031 32 30.117188 32.160156 29.863281 32.476562 L 29.863281 32.238281 C 29.863281 32.1875 29.847656 32.144531 29.816406 32.117188 C 29.789062 32.085938 29.746094 32.070312 29.695312 32.070312 L 29.140625 32.070312 C 29.09375 32.070312 29.050781 32.085938 29.019531 32.117188 C 28.988281 32.144531 28.972656 32.1875 28.972656 32.238281 L 28.972656 35.554688 C 28.972656 35.601562 28.988281 35.640625 29.019531 35.675781 C 29.050781 35.707031 29.09375 35.722656 29.140625 35.722656 L 29.738281 35.722656 C 29.789062 35.722656 29.828125 35.707031 29.859375 35.675781 C 29.890625 35.640625 29.90625 35.601562 29.90625 35.554688 L 29.90625 33.59375 C 29.90625 33.304688 29.96875 33.09375 30.097656 32.957031 C 30.226562 32.824219 30.382812 32.757812 30.566406 32.757812 C 30.761719 32.757812 30.925781 32.824219 31.050781 32.957031 C 31.175781 33.09375 31.242188 33.304688 31.242188 33.59375 L 31.242188 35.554688 C 31.242188 35.601562 31.257812 35.640625 31.289062 35.675781 C 31.324219 35.707031 31.363281 35.722656 31.410156 35.722656 L 32 35.722656 C 32.050781 35.722656 32.09375 35.707031 32.121094 35.675781 C 32.152344 35.640625 32.167969 35.601562 32.167969 35.554688 L 32.167969 33.59375 C 32.167969 33.304688 32.234375 33.09375 32.363281 32.957031 C 32.492188 32.824219 32.644531 32.757812 32.828125 32.757812 C 33.03125 32.757812 33.191406 32.824219 33.316406 32.957031 C 33.441406 33.085938 33.503906 33.300781 33.503906 33.59375 L 33.503906 35.554688 C 33.503906 35.601562 33.519531 35.640625 33.554688 35.675781 C 33.585938 35.707031 33.625 35.722656 33.671875 35.722656 L 34.253906 35.722656 C 34.308594 35.722656 34.347656 35.707031 34.378906 35.675781 C 34.410156 35.640625 34.425781 35.601562 34.425781 35.554688 L 34.425781 33.539062 C 34.425781 33.039062 34.300781 32.65625 34.058594 32.394531 C 33.816406 32.128906 33.5 32 33.117188 32 " fill-opacity="1" fill-rule="nonzero"/><g clip-path="url(#e04fd366da)"><path fill="#26d5dc" d="M 4.332031 16.804688 C 4.332031 15.566406 5.335938 14.5625 6.570312 14.5625 L 17.863281 14.5625 C 19.097656 14.5625 20.101562 15.566406 20.101562 16.804688 C 20.101562 18.039062 19.097656 19.042969 17.863281 19.042969 L 6.570312 19.042969 C 5.335938 19.042969 4.332031 18.039062 4.332031 16.804688 Z M 20.820312 16.804688 C 20.820312 15.171875 19.492188 13.84375 17.863281 13.84375 L 6.570312 13.84375 C 4.941406 13.84375 3.613281 15.171875 3.613281 16.804688 C 3.613281 18.433594 4.941406 19.761719 6.570312 19.761719 L 17.863281 19.761719 C 19.492188 19.761719 20.820312 18.433594 20.820312 16.804688 " fill-opacity="1" fill-rule="nonzero"/></g><path fill="#26d5dc" d="M 7.183594 17.449219 L 6.667969 17.449219 C 6.632812 17.449219 6.601562 17.460938 6.578125 17.484375 C 6.554688 17.507812 6.542969 17.539062 6.542969 17.574219 L 6.542969 18.089844 C 6.542969 18.125 6.554688 18.15625 6.578125 18.179688 C 6.601562 18.203125 6.632812 18.214844 6.667969 18.214844 L 7.183594 18.214844 C 7.222656 18.214844 7.253906 18.203125 7.277344 18.179688 C 7.296875 18.15625 7.308594 18.125 7.308594 18.089844 L 7.308594 17.574219 C 7.308594 17.539062 7.296875 17.507812 7.273438 17.484375 C 7.25 17.460938 7.21875 17.449219 7.183594 17.449219 " fill-opacity="1" fill-rule="nonzero"/><path fill="#26d5dc" d="M 8.675781 16.195312 C 8.773438 16.085938 8.910156 16.03125 9.085938 16.03125 C 9.214844 16.03125 9.324219 16.0625 9.40625 16.121094 C 9.488281 16.179688 9.558594 16.273438 9.609375 16.402344 C 9.625 16.441406 9.644531 16.472656 9.660156 16.488281 C 9.675781 16.503906 9.703125 16.511719 9.742188 16.511719 L 10.199219 16.511719 C 10.234375 16.511719 10.265625 16.5 10.289062 16.472656 C 10.316406 16.449219 10.328125 16.421875 10.324219 16.386719 C 10.316406 16.261719 10.265625 16.128906 10.175781 15.988281 C 10.085938 15.851562 9.945312 15.734375 9.761719 15.636719 C 9.574219 15.542969 9.34375 15.492188 9.074219 15.492188 C 8.699219 15.492188 8.398438 15.597656 8.175781 15.804688 C 7.949219 16.015625 7.832031 16.304688 7.816406 16.675781 L 7.8125 16.878906 L 7.816406 17.085938 C 7.832031 17.453125 7.949219 17.746094 8.175781 17.953125 C 8.398438 18.160156 8.699219 18.265625 9.074219 18.265625 C 9.351562 18.265625 9.582031 18.214844 9.769531 18.117188 C 9.953125 18.019531 10.089844 17.898438 10.179688 17.761719 C 10.269531 17.621094 10.316406 17.492188 10.324219 17.371094 C 10.328125 17.339844 10.316406 17.308594 10.289062 17.285156 C 10.265625 17.261719 10.234375 17.25 10.199219 17.25 L 9.742188 17.25 C 9.703125 17.25 9.675781 17.257812 9.65625 17.273438 C 9.640625 17.292969 9.621094 17.320312 9.609375 17.355469 C 9.558594 17.492188 9.492188 17.585938 9.410156 17.640625 C 9.328125 17.699219 9.21875 17.726562 9.085938 17.726562 C 8.730469 17.726562 8.542969 17.503906 8.519531 17.058594 L 8.515625 16.890625 L 8.519531 16.699219 C 8.527344 16.472656 8.578125 16.304688 8.675781 16.195312 " fill-opacity="1" fill-rule="nonzero"/><path fill="#26d5dc" d="M 12.617188 17.078125 C 12.609375 17.300781 12.558594 17.464844 12.460938 17.578125 C 12.363281 17.691406 12.222656 17.746094 12.042969 17.746094 C 11.863281 17.746094 11.722656 17.691406 11.621094 17.578125 C 11.523438 17.464844 11.46875 17.300781 11.460938 17.078125 L 11.457031 16.878906 L 11.460938 16.679688 C 11.46875 16.460938 11.523438 16.292969 11.621094 16.179688 C 11.722656 16.0625 11.863281 16.007812 12.042969 16.007812 C 12.222656 16.007812 12.359375 16.0625 12.457031 16.179688 C 12.558594 16.292969 12.609375 16.460938 12.617188 16.679688 C 12.621094 16.714844 12.625 16.78125 12.625 16.878906 C 12.625 16.980469 12.621094 17.046875 12.617188 17.078125 Z M 12.96875 15.804688 C 12.746094 15.597656 12.4375 15.492188 12.042969 15.492188 C 11.644531 15.492188 11.335938 15.597656 11.113281 15.804688 C 10.890625 16.011719 10.769531 16.292969 10.753906 16.652344 L 10.75 16.878906 L 10.753906 17.105469 C 10.769531 17.46875 10.890625 17.753906 11.109375 17.957031 C 11.328125 18.164062 11.640625 18.265625 12.042969 18.265625 C 12.445312 18.265625 12.753906 18.164062 12.972656 17.957031 C 13.191406 17.753906 13.308594 17.46875 13.328125 17.105469 C 13.328125 17.066406 13.332031 16.988281 13.332031 16.878906 C 13.332031 16.769531 13.328125 16.695312 13.328125 16.652344 C 13.308594 16.292969 13.191406 16.011719 12.96875 15.804688 " fill-opacity="1" fill-rule="nonzero"/><path fill="#26d5dc" d="M 17.886719 16.617188 C 17.886719 16.25 17.796875 15.972656 17.617188 15.78125 C 17.441406 15.589844 17.210938 15.492188 16.929688 15.492188 C 16.757812 15.492188 16.59375 15.535156 16.441406 15.621094 C 16.292969 15.703125 16.175781 15.8125 16.09375 15.949219 C 15.941406 15.644531 15.679688 15.492188 15.296875 15.492188 C 14.988281 15.492188 14.738281 15.609375 14.554688 15.84375 L 14.554688 15.667969 C 14.554688 15.628906 14.542969 15.601562 14.519531 15.578125 C 14.496094 15.554688 14.46875 15.542969 14.429688 15.542969 L 14.023438 15.542969 C 13.992188 15.542969 13.960938 15.554688 13.9375 15.578125 C 13.914062 15.601562 13.902344 15.628906 13.902344 15.667969 L 13.902344 18.089844 C 13.902344 18.125 13.914062 18.15625 13.9375 18.179688 C 13.960938 18.203125 13.992188 18.214844 14.023438 18.214844 L 14.460938 18.214844 C 14.5 18.214844 14.527344 18.203125 14.550781 18.179688 C 14.574219 18.15625 14.585938 18.125 14.585938 18.089844 L 14.585938 16.660156 C 14.585938 16.445312 14.632812 16.292969 14.726562 16.195312 C 14.820312 16.097656 14.933594 16.046875 15.066406 16.046875 C 15.210938 16.046875 15.328125 16.097656 15.421875 16.195312 C 15.515625 16.292969 15.558594 16.445312 15.558594 16.660156 L 15.558594 18.089844 C 15.558594 18.125 15.570312 18.15625 15.597656 18.179688 C 15.621094 18.203125 15.648438 18.214844 15.683594 18.214844 L 16.113281 18.214844 C 16.152344 18.214844 16.183594 18.203125 16.203125 18.179688 C 16.226562 18.15625 16.238281 18.125 16.238281 18.089844 L 16.238281 16.660156 C 16.238281 16.445312 16.285156 16.292969 16.378906 16.195312 C 16.472656 16.097656 16.585938 16.046875 16.71875 16.046875 C 16.867188 16.046875 16.988281 16.097656 17.078125 16.191406 C 17.167969 16.289062 17.214844 16.441406 17.214844 16.660156 L 17.214844 18.089844 C 17.214844 18.125 17.226562 18.15625 17.25 18.179688 C 17.273438 18.203125 17.300781 18.214844 17.335938 18.214844 L 17.761719 18.214844 C 17.800781 18.214844 17.832031 18.203125 17.851562 18.179688 C 17.875 18.15625 17.886719 18.125 17.886719 18.089844 L 17.886719 16.617188 " fill-opacity="1" fill-rule="nonzero"/><g clip-path="url(#d64e7cabdf)"><path fill="#26d5dc" d="M 21.90625 8 L 33.195312 8 C 34.429688 8 35.4375 9.003906 35.4375 10.238281 C 35.4375 11.476562 34.429688 12.480469 33.195312 12.480469 L 21.90625 12.480469 C 20.667969 12.480469 19.664062 11.476562 19.664062 10.238281 C 19.664062 9.003906 20.667969 8 21.90625 8 Z M 21.90625 13.199219 L 33.195312 13.199219 C 34.828125 13.199219 36.152344 11.871094 36.152344 10.238281 C 36.152344 8.609375 34.828125 7.28125 33.195312 7.28125 L 21.90625 7.28125 C 20.273438 7.28125 18.945312 8.609375 18.945312 10.238281 C 18.945312 11.871094 20.273438 13.199219 21.90625 13.199219 " fill-opacity="1" fill-rule="nonzero"/></g><path fill="#26d5dc" d="M 22 11.652344 L 22.519531 11.652344 C 22.554688 11.652344 22.585938 11.640625 22.609375 11.613281 C 22.628906 11.589844 22.640625 11.5625 22.640625 11.527344 L 22.640625 11.007812 C 22.640625 10.972656 22.628906 10.945312 22.605469 10.921875 C 22.582031 10.898438 22.550781 10.886719 22.519531 10.886719 L 22 10.886719 C 21.964844 10.886719 21.9375 10.898438 21.910156 10.921875 C 21.886719 10.945312 21.875 10.972656 21.875 11.007812 L 21.875 11.527344 C 21.875 11.5625 21.886719 11.589844 21.910156 11.613281 C 21.9375 11.640625 21.964844 11.652344 22 11.652344 " fill-opacity="1" fill-rule="nonzero"/><path fill="#26d5dc" d="M 23.507812 11.390625 C 23.730469 11.597656 24.03125 11.703125 24.40625 11.703125 C 24.683594 11.703125 24.914062 11.652344 25.101562 11.554688 C 25.285156 11.453125 25.421875 11.335938 25.511719 11.195312 C 25.601562 11.058594 25.648438 10.929688 25.65625 10.808594 C 25.660156 10.773438 25.648438 10.746094 25.621094 10.722656 C 25.597656 10.699219 25.566406 10.683594 25.53125 10.683594 L 25.074219 10.683594 C 25.039062 10.683594 25.007812 10.695312 24.992188 10.710938 C 24.972656 10.726562 24.957031 10.753906 24.941406 10.792969 C 24.890625 10.925781 24.824219 11.023438 24.742188 11.078125 C 24.660156 11.132812 24.550781 11.164062 24.417969 11.164062 C 24.0625 11.164062 23.875 10.941406 23.851562 10.496094 L 23.847656 10.324219 L 23.851562 10.136719 C 23.859375 9.910156 23.914062 9.742188 24.007812 9.632812 C 24.105469 9.523438 24.242188 9.46875 24.417969 9.46875 C 24.546875 9.46875 24.65625 9.496094 24.738281 9.554688 C 24.824219 9.613281 24.890625 9.707031 24.941406 9.839844 C 24.957031 9.878906 24.976562 9.90625 24.992188 9.921875 C 25.011719 9.9375 25.039062 9.945312 25.074219 9.945312 L 25.53125 9.945312 C 25.566406 9.945312 25.597656 9.933594 25.621094 9.910156 C 25.648438 9.886719 25.660156 9.855469 25.65625 9.824219 C 25.648438 9.695312 25.601562 9.5625 25.507812 9.425781 C 25.417969 9.285156 25.28125 9.167969 25.09375 9.074219 C 24.90625 8.976562 24.679688 8.929688 24.40625 8.929688 C 24.03125 8.929688 23.730469 9.035156 23.507812 9.242188 C 23.28125 9.453125 23.164062 9.742188 23.148438 10.109375 L 23.144531 10.316406 L 23.148438 10.519531 C 23.164062 10.890625 23.28125 11.179688 23.507812 11.390625 " fill-opacity="1" fill-rule="nonzero"/><path fill="#26d5dc" d="M 26.796875 10.117188 C 26.800781 9.894531 26.855469 9.730469 26.953125 9.613281 C 27.054688 9.5 27.195312 9.441406 27.375 9.441406 C 27.554688 9.441406 27.691406 9.5 27.792969 9.613281 C 27.890625 9.730469 27.945312 9.894531 27.949219 10.117188 C 27.953125 10.148438 27.957031 10.214844 27.957031 10.316406 C 27.957031 10.414062 27.953125 10.480469 27.949219 10.515625 C 27.945312 10.734375 27.890625 10.902344 27.792969 11.015625 C 27.695312 11.125 27.558594 11.183594 27.375 11.183594 C 27.195312 11.183594 27.054688 11.125 26.953125 11.015625 C 26.855469 10.902344 26.800781 10.734375 26.796875 10.515625 L 26.789062 10.316406 Z M 26.441406 11.394531 C 26.660156 11.597656 26.972656 11.703125 27.375 11.703125 C 27.777344 11.703125 28.085938 11.597656 28.304688 11.394531 C 28.523438 11.1875 28.640625 10.90625 28.660156 10.542969 C 28.664062 10.5 28.664062 10.425781 28.664062 10.316406 C 28.664062 10.207031 28.664062 10.128906 28.660156 10.089844 C 28.640625 9.730469 28.523438 9.445312 28.300781 9.238281 C 28.078125 9.03125 27.769531 8.929688 27.375 8.929688 C 26.976562 8.929688 26.667969 9.03125 26.445312 9.238281 C 26.222656 9.445312 26.105469 9.730469 26.085938 10.089844 L 26.082031 10.316406 L 26.085938 10.542969 C 26.105469 10.90625 26.222656 11.1875 26.441406 11.394531 " fill-opacity="1" fill-rule="nonzero"/><path fill="#26d5dc" d="M 29.355469 11.652344 L 29.792969 11.652344 C 29.832031 11.652344 29.859375 11.640625 29.882812 11.613281 C 29.90625 11.589844 29.917969 11.5625 29.917969 11.527344 L 29.917969 10.09375 C 29.917969 9.882812 29.964844 9.726562 30.058594 9.628906 C 30.152344 9.53125 30.265625 9.484375 30.398438 9.484375 C 30.542969 9.484375 30.660156 9.53125 30.753906 9.628906 C 30.847656 9.726562 30.890625 9.882812 30.890625 10.09375 L 30.890625 11.527344 C 30.890625 11.5625 30.90625 11.589844 30.929688 11.613281 C 30.953125 11.640625 30.980469 11.652344 31.015625 11.652344 L 31.445312 11.652344 C 31.484375 11.652344 31.515625 11.640625 31.535156 11.613281 C 31.558594 11.589844 31.570312 11.5625 31.570312 11.527344 L 31.570312 10.09375 C 31.570312 9.882812 31.617188 9.726562 31.710938 9.628906 C 31.804688 9.53125 31.917969 9.484375 32.054688 9.484375 C 32.199219 9.484375 32.320312 9.53125 32.410156 9.628906 C 32.5 9.722656 32.546875 9.878906 32.546875 10.09375 L 32.546875 11.527344 C 32.546875 11.5625 32.558594 11.589844 32.582031 11.613281 C 32.605469 11.640625 32.636719 11.652344 32.667969 11.652344 L 33.09375 11.652344 C 33.132812 11.652344 33.164062 11.640625 33.183594 11.613281 C 33.207031 11.589844 33.21875 11.5625 33.21875 11.527344 L 33.21875 10.054688 C 33.21875 9.6875 33.128906 9.410156 32.953125 9.21875 C 32.773438 9.023438 32.542969 8.929688 32.261719 8.929688 C 32.089844 8.929688 31.925781 8.972656 31.777344 9.054688 C 31.625 9.140625 31.507812 9.25 31.425781 9.386719 C 31.277344 9.082031 31.011719 8.929688 30.628906 8.929688 C 30.320312 8.929688 30.070312 9.046875 29.886719 9.277344 L 29.886719 9.105469 C 29.886719 9.066406 29.875 9.035156 29.851562 9.015625 C 29.832031 8.992188 29.800781 8.980469 29.761719 8.980469 L 29.355469 8.980469 C 29.324219 8.980469 29.292969 8.992188 29.269531 9.015625 C 29.246094 9.035156 29.234375 9.066406 29.234375 9.105469 L 29.234375 11.527344 C 29.234375 11.5625 29.246094 11.589844 29.269531 11.613281 C 29.292969 11.640625 29.324219 11.652344 29.355469 11.652344 " fill-opacity="1" fill-rule="nonzero"/><path fill="#26d5dc" d="M 8.179688 25.308594 C 8.179688 23.894531 9.332031 22.738281 10.75 22.738281 L 23.472656 22.738281 C 24.890625 22.738281 26.042969 23.894531 26.042969 25.3125 C 26.042969 26.726562 24.890625 27.882812 23.472656 27.882812 L 10.75 27.882812 C 9.332031 27.882812 8.179688 26.726562 8.179688 25.308594 Z M 26.761719 25.308594 C 26.761719 23.496094 25.285156 22.023438 23.472656 22.023438 L 10.75 22.023438 C 8.9375 22.023438 7.460938 23.496094 7.460938 25.3125 C 7.460938 27.125 8.9375 28.597656 10.75 28.597656 L 23.472656 28.597656 C 25.285156 28.597656 26.761719 27.125 26.761719 25.308594 " fill-opacity="1" fill-rule="nonzero"/><path fill="#26d5dc" d="M 13.21875 26.117188 L 12.707031 26.117188 C 12.671875 26.117188 12.644531 26.128906 12.621094 26.152344 C 12.597656 26.175781 12.585938 26.207031 12.585938 26.238281 L 12.585938 26.753906 C 12.585938 26.785156 12.597656 26.816406 12.621094 26.839844 C 12.644531 26.863281 12.671875 26.875 12.707031 26.875 L 13.21875 26.875 C 13.257812 26.875 13.285156 26.863281 13.308594 26.839844 C 13.332031 26.816406 13.34375 26.785156 13.34375 26.753906 L 13.34375 26.238281 C 13.34375 26.207031 13.328125 26.175781 13.304688 26.152344 C 13.28125 26.128906 13.253906 26.117188 13.21875 26.117188 " fill-opacity="1" fill-rule="nonzero"/><path fill="#26d5dc" d="M 15.496094 24.179688 C 15.136719 24.179688 14.855469 24.308594 14.648438 24.5625 L 14.648438 24.351562 C 14.648438 24.316406 14.636719 24.285156 14.613281 24.265625 C 14.59375 24.242188 14.5625 24.230469 14.527344 24.230469 L 14.105469 24.230469 C 14.070312 24.230469 14.042969 24.242188 14.019531 24.265625 C 13.992188 24.285156 13.980469 24.316406 13.980469 24.351562 L 13.980469 26.753906 C 13.980469 26.785156 13.992188 26.816406 14.019531 26.839844 C 14.042969 26.863281 14.070312 26.875 14.105469 26.875 L 14.558594 26.875 C 14.59375 26.875 14.625 26.863281 14.644531 26.839844 C 14.667969 26.816406 14.679688 26.785156 14.679688 26.753906 L 14.679688 25.355469 C 14.679688 25.160156 14.730469 25.007812 14.835938 24.898438 C 14.941406 24.785156 15.082031 24.730469 15.253906 24.730469 C 15.433594 24.730469 15.570312 24.785156 15.667969 24.894531 C 15.765625 25.003906 15.8125 25.160156 15.8125 25.355469 L 15.8125 26.753906 C 15.8125 26.785156 15.824219 26.816406 15.847656 26.839844 C 15.871094 26.863281 15.898438 26.875 15.933594 26.875 L 16.390625 26.875 C 16.429688 26.875 16.457031 26.863281 16.480469 26.839844 C 16.503906 26.816406 16.511719 26.785156 16.511719 26.753906 L 16.511719 25.324219 C 16.511719 24.96875 16.421875 24.6875 16.238281 24.484375 C 16.054688 24.28125 15.808594 24.179688 15.496094 24.179688 " fill-opacity="1" fill-rule="nonzero"/><path fill="#26d5dc" d="M 18.855469 25.320312 L 17.742188 25.320312 L 17.742188 25.308594 C 17.742188 25.109375 17.792969 24.949219 17.890625 24.828125 C 17.988281 24.707031 18.125 24.648438 18.296875 24.648438 C 18.46875 24.648438 18.605469 24.707031 18.707031 24.828125 C 18.808594 24.949219 18.855469 25.109375 18.855469 25.308594 Z M 18.296875 24.179688 C 17.90625 24.179688 17.597656 24.300781 17.375 24.546875 C 17.152344 24.789062 17.042969 25.125 17.042969 25.546875 L 17.046875 25.675781 C 17.0625 26.074219 17.179688 26.382812 17.402344 26.601562 C 17.621094 26.816406 17.921875 26.925781 18.304688 26.925781 C 18.539062 26.925781 18.75 26.882812 18.929688 26.804688 C 19.109375 26.722656 19.246094 26.625 19.34375 26.515625 C 19.4375 26.40625 19.488281 26.308594 19.488281 26.230469 C 19.488281 26.199219 19.476562 26.175781 19.453125 26.15625 C 19.433594 26.140625 19.40625 26.132812 19.375 26.132812 L 18.929688 26.132812 C 18.886719 26.132812 18.859375 26.136719 18.839844 26.144531 C 18.824219 26.152344 18.800781 26.175781 18.769531 26.214844 C 18.648438 26.371094 18.492188 26.449219 18.296875 26.449219 C 18.128906 26.449219 17.996094 26.386719 17.898438 26.261719 C 17.800781 26.136719 17.75 25.980469 17.742188 25.792969 L 17.742188 25.75 L 19.429688 25.75 C 19.46875 25.75 19.5 25.738281 19.523438 25.714844 C 19.546875 25.691406 19.558594 25.664062 19.558594 25.628906 L 19.558594 25.523438 C 19.558594 25.117188 19.449219 24.789062 19.230469 24.546875 C 19.011719 24.300781 18.699219 24.179688 18.296875 24.179688 " fill-opacity="1" fill-rule="nonzero"/><path fill="#26d5dc" d="M 21.703125 26.308594 L 21.347656 26.308594 C 21.230469 26.308594 21.148438 26.273438 21.097656 26.199219 C 21.046875 26.125 21.023438 26.015625 21.023438 25.867188 L 21.023438 24.773438 L 21.65625 24.773438 C 21.691406 24.773438 21.71875 24.761719 21.742188 24.738281 C 21.769531 24.714844 21.78125 24.6875 21.78125 24.652344 L 21.78125 24.351562 C 21.78125 24.320312 21.769531 24.289062 21.742188 24.265625 C 21.71875 24.242188 21.691406 24.230469 21.65625 24.230469 L 21.023438 24.230469 L 21.023438 23.386719 C 21.023438 23.351562 21.011719 23.320312 20.988281 23.296875 C 20.96875 23.277344 20.9375 23.265625 20.898438 23.265625 L 20.476562 23.265625 C 20.445312 23.265625 20.414062 23.277344 20.390625 23.296875 C 20.367188 23.320312 20.355469 23.351562 20.355469 23.386719 L 20.355469 24.230469 L 19.953125 24.230469 C 19.921875 24.230469 19.890625 24.242188 19.867188 24.265625 C 19.84375 24.289062 19.832031 24.320312 19.832031 24.351562 L 19.832031 24.652344 C 19.832031 24.6875 19.84375 24.714844 19.867188 24.738281 C 19.890625 24.761719 19.921875 24.773438 19.953125 24.773438 L 20.355469 24.773438 L 20.355469 25.925781 C 20.355469 26.234375 20.433594 26.472656 20.589844 26.632812 C 20.746094 26.792969 20.976562 26.875 21.285156 26.875 L 21.703125 26.875 C 21.742188 26.875 21.769531 26.863281 21.792969 26.839844 C 21.8125 26.816406 21.824219 26.785156 21.824219 26.753906 L 21.824219 26.433594 C 21.824219 26.394531 21.8125 26.367188 21.792969 26.34375 C 21.769531 26.320312 21.742188 26.308594 21.703125 26.308594 " fill-opacity="1" fill-rule="nonzero"/><g clip-path="url(#aee5310f11)"><path fill="#26d5dc" d="M 38.609375 21.8125 L 28.113281 21.8125 C 26.980469 21.8125 26.058594 20.890625 26.058594 19.753906 C 26.058594 18.621094 26.980469 17.699219 28.113281 17.699219 L 38.609375 17.699219 C 39.742188 17.699219 40.667969 18.621094 40.667969 19.753906 C 40.667969 20.890625 39.742188 21.8125 38.609375 21.8125 Z M 38.609375 16.980469 L 28.113281 16.980469 C 26.585938 16.980469 25.339844 18.222656 25.339844 19.753906 C 25.339844 21.285156 26.585938 22.53125 28.113281 22.53125 L 38.609375 22.53125 C 40.140625 22.53125 41.382812 21.285156 41.382812 19.753906 C 41.382812 18.222656 40.140625 16.980469 38.609375 16.980469 " fill-opacity="1" fill-rule="nonzero"/></g><path fill="#26d5dc" d="M 29.332031 20.070312 L 28.894531 20.070312 C 28.863281 20.070312 28.839844 20.078125 28.820312 20.097656 C 28.800781 20.121094 28.789062 20.144531 28.789062 20.171875 L 28.789062 20.609375 C 28.789062 20.636719 28.800781 20.664062 28.820312 20.683594 C 28.839844 20.703125 28.863281 20.714844 28.894531 20.714844 L 29.332031 20.714844 C 29.363281 20.714844 29.386719 20.703125 29.40625 20.683594 C 29.425781 20.664062 29.433594 20.636719 29.433594 20.609375 L 29.433594 20.171875 C 29.433594 20.144531 29.425781 20.121094 29.402344 20.097656 C 29.382812 20.078125 29.359375 20.070312 29.332031 20.070312 " fill-opacity="1" fill-rule="nonzero"/><path fill="#26d5dc" d="M 31.433594 19.757812 C 31.425781 19.941406 31.382812 20.082031 31.300781 20.175781 C 31.21875 20.273438 31.101562 20.320312 30.949219 20.320312 C 30.796875 20.320312 30.675781 20.273438 30.59375 20.175781 C 30.507812 20.082031 30.464844 19.941406 30.460938 19.757812 L 30.453125 19.589844 L 30.460938 19.421875 C 30.464844 19.234375 30.507812 19.09375 30.59375 19 C 30.675781 18.902344 30.796875 18.855469 30.949219 18.855469 C 31.097656 18.855469 31.214844 18.902344 31.296875 19 C 31.382812 19.09375 31.425781 19.234375 31.433594 19.421875 C 31.433594 19.449219 31.4375 19.503906 31.4375 19.589844 C 31.4375 19.671875 31.433594 19.730469 31.433594 19.757812 Z M 31.726562 18.683594 C 31.539062 18.507812 31.28125 18.421875 30.949219 18.421875 C 30.613281 18.421875 30.351562 18.507812 30.164062 18.683594 C 29.976562 18.859375 29.878906 19.097656 29.863281 19.398438 L 29.859375 19.589844 L 29.863281 19.78125 C 29.878906 20.085938 29.976562 20.324219 30.160156 20.496094 C 30.34375 20.671875 30.609375 20.757812 30.949219 20.757812 C 31.285156 20.757812 31.546875 20.671875 31.730469 20.496094 C 31.914062 20.324219 32.015625 20.085938 32.027344 19.78125 C 32.03125 19.746094 32.035156 19.679688 32.035156 19.589844 C 32.035156 19.496094 32.03125 19.433594 32.027344 19.398438 C 32.015625 19.097656 31.914062 18.859375 31.726562 18.683594 " fill-opacity="1" fill-rule="nonzero"/><path fill="#26d5dc" d="M 33.882812 18.464844 L 33.703125 18.464844 C 33.429688 18.464844 33.222656 18.558594 33.078125 18.75 L 33.078125 18.574219 C 33.078125 18.542969 33.070312 18.515625 33.050781 18.496094 C 33.027344 18.476562 33.003906 18.464844 32.972656 18.464844 L 32.617188 18.464844 C 32.589844 18.464844 32.5625 18.476562 32.542969 18.496094 C 32.523438 18.515625 32.511719 18.542969 32.511719 18.574219 L 32.511719 20.609375 C 32.511719 20.636719 32.523438 20.664062 32.542969 20.683594 C 32.5625 20.703125 32.589844 20.714844 32.617188 20.714844 L 33 20.714844 C 33.03125 20.714844 33.054688 20.703125 33.074219 20.683594 C 33.09375 20.664062 33.105469 20.636719 33.105469 20.609375 L 33.105469 19.425781 C 33.105469 19.289062 33.144531 19.183594 33.222656 19.105469 C 33.300781 19.027344 33.40625 18.988281 33.542969 18.988281 L 33.882812 18.988281 C 33.914062 18.988281 33.941406 18.976562 33.960938 18.957031 C 33.976562 18.9375 33.988281 18.914062 33.988281 18.882812 L 33.988281 18.570312 C 33.988281 18.535156 33.976562 18.511719 33.960938 18.492188 C 33.941406 18.472656 33.914062 18.464844 33.882812 18.464844 " fill-opacity="1" fill-rule="nonzero"/><path fill="#26d5dc" d="M 35.785156 19.703125 C 35.777344 19.851562 35.734375 19.976562 35.652344 20.082031 C 35.570312 20.1875 35.449219 20.238281 35.289062 20.238281 C 34.957031 20.238281 34.792969 20.011719 34.792969 19.5625 L 34.796875 19.460938 C 34.8125 19.078125 34.976562 18.890625 35.289062 18.890625 C 35.449219 18.890625 35.570312 18.941406 35.652344 19.042969 C 35.734375 19.148438 35.777344 19.273438 35.785156 19.425781 C 35.789062 19.449219 35.789062 19.492188 35.789062 19.5625 C 35.789062 19.632812 35.789062 19.679688 35.785156 19.703125 Z M 36.347656 18.496094 C 36.328125 18.476562 36.304688 18.464844 36.273438 18.464844 L 35.921875 18.464844 C 35.890625 18.464844 35.867188 18.476562 35.84375 18.496094 C 35.824219 18.515625 35.8125 18.542969 35.8125 18.574219 L 35.8125 18.742188 C 35.738281 18.644531 35.640625 18.566406 35.527344 18.507812 C 35.410156 18.449219 35.277344 18.421875 35.125 18.421875 C 34.828125 18.421875 34.601562 18.515625 34.449219 18.703125 C 34.296875 18.890625 34.214844 19.136719 34.203125 19.445312 L 34.199219 19.5625 L 34.203125 19.679688 C 34.214844 19.996094 34.296875 20.242188 34.449219 20.421875 C 34.597656 20.605469 34.824219 20.695312 35.125 20.695312 C 35.410156 20.695312 35.628906 20.605469 35.785156 20.417969 L 35.785156 20.714844 C 35.785156 20.902344 35.746094 21.035156 35.664062 21.113281 C 35.585938 21.191406 35.457031 21.226562 35.285156 21.226562 C 35.152344 21.226562 35.054688 21.203125 34.992188 21.148438 C 34.925781 21.09375 34.878906 21.03125 34.847656 20.957031 C 34.835938 20.921875 34.820312 20.898438 34.800781 20.882812 C 34.785156 20.871094 34.761719 20.863281 34.734375 20.863281 L 34.351562 20.863281 C 34.320312 20.863281 34.296875 20.875 34.277344 20.894531 C 34.257812 20.910156 34.246094 20.933594 34.246094 20.964844 C 34.246094 21.042969 34.28125 21.136719 34.347656 21.246094 C 34.414062 21.355469 34.523438 21.453125 34.683594 21.539062 C 34.84375 21.621094 35.050781 21.664062 35.304688 21.664062 C 35.667969 21.664062 35.9375 21.578125 36.113281 21.402344 C 36.292969 21.226562 36.382812 20.976562 36.382812 20.65625 L 36.378906 18.574219 C 36.378906 18.542969 36.367188 18.515625 36.347656 18.496094 " fill-opacity="1" fill-rule="nonzero"/></svg>