<svg xmlns="http://www.w3.org/2000/svg" xmlns:xlink="http://www.w3.org/1999/xlink" width="60" zoomAndPan="magnify" viewBox="0 0 45 44.999999" height="60" preserveAspectRatio="xMidYMid meet" version="1.0"><defs><clipPath id="601044cc74"><path d="M 11 10 L 42 10 L 42 40.5 L 11 40.5 Z M 11 10 " clip-rule="nonzero"/></clipPath><clipPath id="af54936035"><path d="M 5 4.5 L 43 4.5 L 43 27 L 5 27 Z M 5 4.5 " clip-rule="nonzero"/></clipPath><clipPath id="18e31d88f3"><path d="M 2.015625 30 L 6 30 L 6 38 L 2.015625 38 Z M 2.015625 30 " clip-rule="nonzero"/></clipPath></defs><g clip-path="url(#601044cc74)"><path fill="#26d5dc" d="M 26.582031 10.621094 C 18.402344 10.621094 11.746094 17.273438 11.746094 25.453125 C 11.746094 33.632812 18.398438 40.285156 26.582031 40.285156 C 34.765625 40.285156 41.414062 33.632812 41.414062 25.453125 C 41.414062 17.273438 34.761719 10.621094 26.582031 10.621094 Z M 13.878906 25.453125 C 13.878906 22.113281 15.1875 19.078125 17.308594 16.804688 C 17.390625 16.851562 17.480469 16.914062 17.582031 16.984375 C 17.660156 17.074219 17.691406 17.683594 17.652344 18.316406 L 17.652344 18.34375 L 17.660156 18.371094 C 17.664062 18.382812 18.195312 19.679688 17.691406 20.71875 C 17.148438 21.839844 17.25 23.632812 17.53125 24.039062 C 17.773438 24.386719 18.996094 25.957031 19.175781 26.132812 C 19.308594 26.269531 19.722656 27.410156 19.761719 27.570312 C 19.800781 27.714844 20.589844 28.695312 21.425781 28.667969 C 21.914062 28.648438 22.476562 28.929688 22.847656 29.113281 C 23.042969 29.207031 23.171875 29.273438 23.261719 29.285156 C 23.296875 29.289062 23.347656 29.382812 23.394531 29.460938 C 23.515625 29.664062 23.695312 29.976562 24.144531 30.226562 C 24.265625 30.296875 24.394531 30.363281 24.515625 30.429688 C 24.957031 30.671875 25.558594 31.003906 25.601562 31.109375 C 25.59375 31.144531 25.503906 31.246094 25.433594 31.328125 C 25.167969 31.636719 24.71875 32.148438 24.84375 32.84375 C 25.015625 33.800781 26.363281 34.9375 26.804688 35.222656 C 27.089844 35.40625 26.953125 37.367188 26.792969 37.71875 C 26.746094 37.824219 26.726562 37.972656 26.722656 38.136719 C 26.675781 38.136719 26.628906 38.144531 26.582031 38.144531 C 19.578125 38.15625 13.878906 32.453125 13.878906 25.453125 Z M 29.304688 37.851562 C 29.402344 37.746094 29.480469 37.648438 29.5 37.609375 C 29.523438 37.582031 29.640625 37.515625 29.734375 37.46875 C 29.9375 37.359375 30.164062 37.234375 30.257812 37.082031 C 30.398438 36.855469 30.835938 36.402344 31.027344 36.308594 C 31.269531 36.1875 32.785156 34.816406 32.878906 34.59375 C 33.117188 34.042969 33.445312 33.410156 33.632812 33.261719 C 33.976562 32.988281 33.664062 32.492188 33.546875 32.308594 L 33.523438 32.269531 C 33.394531 32.054688 32.53125 31.964844 32.398438 31.988281 C 32.242188 31.984375 31.507812 31.585938 31.457031 31.457031 C 31.457031 31.207031 30.75 30.527344 30.554688 30.527344 C 30.480469 30.527344 30.03125 30.429688 29.800781 30.148438 C 29.515625 29.800781 28.507812 29.570312 28.222656 29.570312 C 27.949219 29.570312 27.542969 29.515625 27.261719 29.386719 C 27.003906 29.269531 26.582031 29.433594 26.136719 29.625 C 26.042969 29.667969 25.964844 29.703125 25.917969 29.71875 C 25.765625 29.761719 24.933594 29.582031 24.730469 29.496094 C 24.671875 29.449219 24.640625 29.113281 24.632812 28.949219 C 24.617188 28.730469 24.601562 28.601562 24.558594 28.527344 C 24.496094 28.417969 24.300781 28.359375 23.910156 28.261719 C 23.808594 28.234375 23.679688 28.203125 23.621094 28.183594 C 23.636719 28.121094 23.679688 28.023438 23.714844 27.945312 C 23.847656 27.636719 23.929688 27.421875 23.859375 27.285156 C 23.835938 27.234375 23.789062 27.199219 23.726562 27.183594 C 23.535156 27.140625 23.273438 27.332031 23 27.535156 C 22.878906 27.625 22.6875 27.765625 22.636719 27.769531 C 22.46875 27.769531 22.140625 27.628906 21.738281 27.390625 C 21.511719 27.25 21.773438 26.503906 21.902344 26.148438 C 21.96875 25.964844 22.011719 25.835938 22.023438 25.757812 C 22.03125 25.675781 22.453125 25.558594 23.058594 25.558594 C 23.226562 25.558594 23.457031 25.519531 23.679688 25.484375 C 23.878906 25.449219 24.085938 25.417969 24.210938 25.417969 C 24.296875 25.417969 24.460938 25.652344 24.558594 25.792969 C 24.722656 26.027344 24.847656 26.207031 25.019531 26.175781 C 25.257812 26.128906 25.242188 25.820312 25.226562 25.601562 C 25.222656 25.527344 25.21875 25.449219 25.222656 25.410156 C 25.246094 25.273438 25.558594 24.746094 25.8125 24.589844 C 26.125 24.40625 26.535156 23.820312 26.425781 23.53125 C 26.429688 23.402344 26.964844 23.042969 27.140625 22.921875 C 27.222656 22.867188 27.292969 22.820312 27.339844 22.785156 C 27.394531 22.742188 27.460938 22.707031 27.527344 22.671875 C 27.714844 22.570312 27.949219 22.445312 27.949219 22.128906 C 27.949219 21.941406 28.535156 21.851562 28.882812 21.800781 C 28.964844 21.789062 29.042969 21.78125 29.117188 21.765625 C 29.34375 21.726562 29.46875 21.667969 29.523438 21.570312 C 29.589844 21.445312 29.53125 21.300781 29.460938 21.140625 C 29.441406 21.09375 29.421875 21.046875 29.402344 20.996094 C 29.289062 20.703125 29.355469 20.5 29.613281 20.320312 C 29.734375 20.234375 29.953125 20.207031 30.1875 20.179688 C 30.421875 20.15625 30.695312 20.121094 30.9375 20.019531 C 31.113281 19.949219 31.207031 19.863281 31.238281 19.75 C 31.277344 19.597656 31.175781 19.46875 31.089844 19.351562 C 31.054688 19.304688 31.019531 19.257812 30.996094 19.210938 C 30.867188 18.957031 30.636719 18.765625 30.488281 18.640625 C 30.40625 18.574219 30.324219 18.214844 30.277344 18 C 30.242188 17.855469 30.214844 17.730469 30.1875 17.648438 C 30.15625 17.566406 30.09375 17.511719 30.007812 17.480469 C 29.8125 17.414062 29.5 17.511719 29.324219 17.601562 C 29.308594 17.558594 29.296875 17.484375 29.289062 17.4375 C 29.265625 17.304688 29.246094 17.179688 29.175781 17.105469 C 29.128906 17.058594 29.027344 16.964844 28.902344 16.847656 C 28.714844 16.679688 28.488281 16.46875 28.335938 16.316406 C 28.246094 16.226562 28.15625 16.214844 28.089844 16.226562 C 27.875 16.253906 27.699219 16.515625 27.539062 16.785156 C 27.515625 16.816406 27.5 16.847656 27.488281 16.871094 C 27.210938 17.277344 27.171875 17.585938 27.375 17.730469 C 27.382812 17.742188 27.402344 17.808594 27.347656 17.949219 C 27.269531 18.15625 27.121094 18.308594 27.039062 18.308594 C 27.035156 18.308594 27.035156 18.308594 27.035156 18.308594 C 26.785156 18.289062 26.71875 18.625 26.65625 18.957031 C 26.632812 19.078125 26.59375 19.269531 26.554688 19.339844 C 26.492188 19.289062 26.425781 19.09375 26.433594 18.519531 L 26.433594 18.453125 C 26.433594 18.378906 26.414062 18.316406 26.367188 18.28125 C 26.289062 18.210938 26.179688 18.21875 26.085938 18.226562 C 25.964844 18.242188 25.910156 18.234375 25.878906 18.191406 C 25.742188 17.972656 25.058594 17.707031 24.796875 17.609375 C 24.785156 17.246094 24.78125 16.855469 24.789062 16.816406 C 24.871094 16.703125 25.9375 15.972656 26.179688 15.894531 C 26.519531 15.785156 27.363281 15.210938 27.53125 15.09375 C 27.679688 14.988281 27.703125 14.875 27.6875 14.796875 C 27.652344 14.527344 27.171875 14.335938 26.960938 14.261719 C 26.796875 13.898438 26.554688 13.898438 26.25 13.902344 C 26.097656 13.90625 25.925781 13.90625 25.714844 13.875 C 24.921875 13.738281 24.246094 13.710938 23.710938 13.785156 C 23.332031 13.839844 22.875 13.742188 22.503906 13.667969 C 22.351562 13.636719 22.226562 13.609375 22.109375 13.597656 C 23.503906 13.070312 25.007812 12.769531 26.582031 12.769531 C 28.332031 12.769531 30 13.128906 31.519531 13.769531 C 31.550781 13.890625 31.59375 14.011719 31.644531 14.125 C 31.8125 14.488281 32.089844 15.136719 32.089844 15.609375 C 32.089844 16.089844 32.152344 16.59375 32.09375 16.746094 C 32.039062 16.894531 33.050781 18.023438 33.277344 18.054688 C 33.5 18.085938 33.644531 17.941406 33.78125 17.71875 C 33.921875 17.496094 34.117188 17.242188 34.515625 16.929688 C 34.824219 16.6875 35.523438 16.742188 35.8125 16.773438 C 36.238281 17.226562 36.636719 17.710938 36.996094 18.222656 C 36.933594 18.273438 36.875 18.328125 36.832031 18.371094 C 36.652344 18.550781 36.136719 19.070312 36.195312 19.464844 C 36.257812 19.863281 36.683594 20.347656 37.199219 20.625 C 37.71875 20.902344 37.777344 21.417969 37.777344 21.507812 C 37.777344 21.597656 38.511719 22.054688 38.511719 22.054688 C 38.511719 22.054688 38.203125 22.664062 38.054688 22.664062 C 37.902344 22.664062 37.777344 23.273438 37.777344 23.519531 C 37.777344 23.761719 38.082031 24.1875 38.402344 24.441406 C 38.675781 24.652344 39.074219 24.203125 39.195312 24.054688 C 39.238281 24.425781 39.257812 24.808594 39.265625 25.1875 C 38.945312 25.191406 38.429688 25.417969 38.261719 25.566406 C 38.050781 25.746094 37.59375 27.238281 37.375 27.394531 C 37.164062 27.542969 36.738281 29.585938 36.707031 29.800781 C 36.679688 30 37.269531 31.585938 37.644531 31.695312 C 35.894531 34.769531 32.878906 37.0625 29.304688 37.851562 Z M 29.304688 37.851562 " fill-opacity="1" fill-rule="nonzero"/></g><g clip-path="url(#af54936035)"><path fill="#26d5dc" d="M 41.90625 7.621094 C 41.316406 7.621094 40.84375 8.101562 40.84375 8.6875 L 40.84375 10.097656 C 36.953125 6.5 31.949219 4.503906 26.625 4.503906 C 21.023438 4.503906 15.761719 6.6875 11.800781 10.644531 C 7.929688 14.515625 5.75 19.664062 5.664062 25.132812 C 5.65625 25.726562 6.125 26.207031 6.710938 26.214844 C 6.714844 26.214844 6.722656 26.214844 6.726562 26.214844 C 7.308594 26.214844 7.785156 25.75 7.792969 25.167969 C 7.871094 20.25 9.828125 15.628906 13.308594 12.152344 C 16.863281 8.597656 21.589844 6.640625 26.621094 6.640625 C 31.34375 6.640625 35.792969 8.390625 39.265625 11.546875 L 37.976562 11.546875 C 37.386719 11.546875 36.910156 12.023438 36.910156 12.609375 C 36.910156 13.195312 37.390625 13.675781 37.976562 13.675781 L 41.902344 13.675781 C 42.496094 13.675781 42.96875 13.195312 42.96875 12.609375 L 42.96875 8.6875 C 42.972656 8.097656 42.496094 7.621094 41.90625 7.621094 Z M 41.90625 7.621094 " fill-opacity="1" fill-rule="nonzero"/></g><g clip-path="url(#18e31d88f3)"><path fill="#26d5dc" d="M 5.59375 32.089844 L 2.25 30.5625 C 2.140625 30.511719 2.015625 30.59375 2.015625 30.714844 L 2.015625 35.382812 C 2.015625 35.445312 2.054688 35.507812 2.113281 35.53125 L 5.460938 37.058594 C 5.566406 37.109375 5.691406 37.027344 5.691406 36.910156 L 5.691406 32.238281 C 5.691406 32.175781 5.65625 32.113281 5.59375 32.089844 Z M 5.59375 32.089844 " fill-opacity="1" fill-rule="nonzero"/></g><path fill="#26d5dc" d="M 9.578125 29.105469 L 6.496094 27.699219 C 6.453125 27.679688 6.398438 27.679688 6.355469 27.699219 L 3.277344 29.105469 C 3.148438 29.164062 3.148438 29.347656 3.277344 29.40625 L 6.355469 30.816406 C 6.398438 30.839844 6.453125 30.839844 6.496094 30.816406 L 9.574219 29.40625 C 9.707031 29.351562 9.707031 29.164062 9.578125 29.105469 Z M 9.578125 29.105469 " fill-opacity="1" fill-rule="nonzero"/><path fill="#26d5dc" d="M 10.605469 30.558594 L 7.257812 32.085938 C 7.199219 32.109375 7.160156 32.171875 7.160156 32.234375 L 7.160156 36.902344 C 7.160156 37.023438 7.285156 37.105469 7.390625 37.054688 L 10.738281 35.527344 C 10.796875 35.503906 10.835938 35.441406 10.835938 35.378906 L 10.835938 30.707031 C 10.839844 30.589844 10.714844 30.511719 10.605469 30.558594 Z M 10.605469 30.558594 " fill-opacity="1" fill-rule="nonzero"/></svg>