<svg xmlns="http://www.w3.org/2000/svg" xmlns:xlink="http://www.w3.org/1999/xlink" width="60" zoomAndPan="magnify" viewBox="0 0 45 44.999999" height="60" preserveAspectRatio="xMidYMid meet" version="1.0"><defs><clipPath id="a235f6f08c"><path d="M 7.125 7.625 L 37.875 7.625 L 37.875 37.625 L 7.125 37.625 Z M 7.125 7.625 " clip-rule="nonzero"/></clipPath></defs><g clip-path="url(#a235f6f08c)"><path fill="#26d5dc" d="M 36.535156 21.269531 L 35.71875 22.476562 L 18.101562 10.609375 L 18.914062 9.402344 C 19.289062 8.847656 20.042969 8.699219 20.597656 9.074219 L 36.203125 19.585938 C 36.757812 19.957031 36.90625 20.714844 36.535156 21.269531 Z M 30.859375 29.695312 L 31.753906 23.3125 L 34.09375 24.890625 Z M 29.199219 35.234375 C 29.105469 35.894531 28.492188 36.359375 27.832031 36.265625 L 9.195312 33.65625 C 8.535156 33.5625 8.066406 32.945312 8.164062 32.285156 L 9.304688 24.121094 L 30.34375 27.070312 Z M 9.914062 19.796875 C 10.003906 19.132812 10.621094 18.671875 11.28125 18.765625 L 29.914062 21.378906 C 30.578125 21.46875 31.042969 22.082031 30.949219 22.746094 L 30.746094 24.1875 L 9.710938 21.238281 Z M 16.476562 13.023438 L 26.957031 20.082031 L 13.035156 18.128906 Z M 36.691406 18.863281 L 21.085938 8.351562 C 20.132812 7.707031 18.832031 7.957031 18.1875 8.914062 L 12.074219 17.992188 L 11.402344 17.902344 C 10.265625 17.742188 9.207031 18.539062 9.046875 19.679688 L 7.300781 32.164062 C 7.136719 33.300781 7.9375 34.359375 9.074219 34.519531 L 27.707031 37.132812 C 28.847656 37.292969 29.902344 36.492188 30.0625 35.355469 L 30.582031 31.667969 L 37.257812 21.753906 C 37.898438 20.804688 37.644531 19.503906 36.691406 18.863281 " fill-opacity="1" fill-rule="nonzero"/></g><path fill="#26d5dc" d="M 19.367188 27.804688 L 28.351562 29.066406 L 28.449219 28.351562 L 19.46875 27.09375 L 19.367188 27.804688 " fill-opacity="1" fill-rule="nonzero"/><path fill="#26d5dc" d="M 19.152344 29.34375 L 28.136719 30.601562 L 28.234375 29.890625 L 19.25 28.628906 L 19.152344 29.34375 " fill-opacity="1" fill-rule="nonzero"/></svg>