<svg xmlns="http://www.w3.org/2000/svg" xmlns:xlink="http://www.w3.org/1999/xlink" width="230" zoomAndPan="magnify" viewBox="0 0 172.5 63.749997" height="85" preserveAspectRatio="xMidYMid meet" version="1.0"><defs><clipPath id="a45c68c116"><path d="M 0.0898438 0 L 171.914062 0 L 171.914062 63.5 L 0.0898438 63.5 Z M 0.0898438 0 " clip-rule="nonzero"/></clipPath><clipPath id="0f34051dba"><path d="M 17 31.75 L 148 31.75 L 148 44 L 17 44 Z M 17 31.75 " clip-rule="nonzero"/></clipPath></defs><g clip-path="url(#a45c68c116)"><path fill="#ffffff" d="M 0.0898438 0 L 171.914062 0 L 171.914062 63.5 L 0.0898438 63.5 Z M 0.0898438 0 " fill-opacity="1" fill-rule="nonzero"/><path fill="#ffffff" d="M 0.0898438 0 L 171.914062 0 L 171.914062 63.5 L 0.0898438 63.5 Z M 0.0898438 0 " fill-opacity="1" fill-rule="nonzero"/></g><g clip-path="url(#0f34051dba)"><path fill="#26d5dc" d="M 147.085938 38.101562 C 138.976562 36.214844 130.761719 34.792969 122.492188 33.8125 C 114.066406 32.8125 105.59375 32.257812 97.113281 32 C 88.8125 31.75 80.507812 31.8125 72.210938 32.085938 C 63.789062 32.363281 55.371094 32.855469 46.964844 33.457031 C 38.625 34.050781 30.289062 34.75 21.96875 35.578125 C 20.746094 35.699219 19.523438 35.816406 18.300781 35.933594 C 17.136719 36.042969 17.386719 37.8125 18.542969 37.722656 C 27 37.054688 35.460938 36.382812 43.921875 35.761719 C 52.253906 35.152344 60.59375 34.640625 68.941406 34.335938 C 77.234375 34.03125 85.535156 33.921875 93.832031 34.097656 C 102.203125 34.277344 110.566406 34.773438 118.894531 35.664062 C 122.824219 36.085938 126.746094 36.59375 130.652344 37.199219 C 122.753906 36.824219 114.855469 36.515625 106.949219 36.367188 C 93.730469 36.117188 80.480469 36.316406 67.300781 37.421875 C 59.871094 38.046875 52.464844 38.96875 45.113281 40.222656 C 43.992188 40.414062 44.292969 42.300781 45.421875 42.203125 C 56.652344 41.257812 67.921875 40.789062 79.191406 40.777344 C 90.394531 40.769531 101.59375 41.214844 112.761719 42.105469 C 115.910156 42.355469 119.058594 42.636719 122.199219 42.953125 C 123.730469 43.109375 125.257812 43.265625 126.785156 43.433594 C 128.503906 43.621094 130.230469 43.734375 131.945312 43.949219 C 133.25 44.113281 133.644531 42.09375 132.332031 41.929688 C 130.792969 41.738281 129.261719 41.460938 127.71875 41.277344 C 126.316406 41.113281 124.914062 40.957031 123.511719 40.808594 C 120.703125 40.507812 117.890625 40.246094 115.074219 40.011719 C 109.535156 39.546875 103.988281 39.214844 98.433594 38.992188 C 92.742188 38.761719 87.050781 38.648438 81.355469 38.644531 C 82.617188 38.597656 83.882812 38.558594 85.144531 38.523438 C 98.25 38.160156 111.371094 38.527344 124.464844 39.109375 C 131.847656 39.4375 139.226562 39.867188 146.609375 40.273438 C 147.164062 40.300781 147.683594 39.949219 147.796875 39.394531 C 147.894531 38.898438 147.636719 38.226562 147.085938 38.101562 " fill-opacity="1" fill-rule="nonzero"/></g></svg>