<svg xmlns="http://www.w3.org/2000/svg" xmlns:xlink="http://www.w3.org/1999/xlink" width="60" zoomAndPan="magnify" viewBox="0 0 45 44.999999" height="60" preserveAspectRatio="xMidYMid meet" version="1.0"><defs><clipPath id="cfd855d86b"><path d="M 13.78125 31.355469 L 40.921875 31.355469 L 40.921875 40.328125 L 13.78125 40.328125 Z M 13.78125 31.355469 " clip-rule="nonzero"/></clipPath><clipPath id="435aeb7a6b"><path d="M 0.53125 12 L 21 12 L 21 20 L 0.53125 20 Z M 0.53125 12 " clip-rule="nonzero"/></clipPath><clipPath id="56c3200800"><path d="M 18 5.078125 L 39 5.078125 L 39 12 L 18 12 Z M 18 5.078125 " clip-rule="nonzero"/></clipPath><clipPath id="c0a2aff6ee"><path d="M 25.777344 16.359375 L 44.46875 16.359375 L 44.46875 22.851562 L 25.777344 22.851562 Z M 25.777344 16.359375 " clip-rule="nonzero"/></clipPath></defs><g clip-path="url(#cfd855d86b)"><path fill="#26d5dc" d="M 36.335938 39.644531 L 18.359375 39.644531 C 16.308594 39.644531 14.636719 37.976562 14.636719 35.925781 C 14.636719 33.875 16.308594 32.203125 18.359375 32.203125 L 36.335938 32.203125 C 38.386719 32.203125 40.054688 33.875 40.054688 35.925781 C 40.054688 37.976562 38.386719 39.644531 36.335938 39.644531 Z M 36.335938 31.367188 L 18.359375 31.367188 C 15.847656 31.367188 13.804688 33.414062 13.804688 35.925781 C 13.804688 38.4375 15.847656 40.480469 18.359375 40.480469 L 36.335938 40.480469 C 38.847656 40.480469 40.890625 38.4375 40.890625 35.925781 C 40.890625 33.414062 38.847656 31.367188 36.335938 31.367188 " fill-opacity="1" fill-rule="nonzero"/></g><path fill="#26d5dc" d="M 19.335938 36.953125 L 18.511719 36.953125 C 18.457031 36.953125 18.410156 36.972656 18.371094 37.011719 C 18.332031 37.050781 18.3125 37.097656 18.3125 37.152344 L 18.3125 37.976562 C 18.3125 38.03125 18.332031 38.078125 18.371094 38.113281 C 18.410156 38.152344 18.457031 38.171875 18.511719 38.171875 L 19.335938 38.171875 C 19.394531 38.171875 19.441406 38.152344 19.480469 38.113281 C 19.515625 38.078125 19.53125 38.03125 19.53125 37.976562 L 19.53125 37.152344 C 19.53125 37.097656 19.511719 37.050781 19.472656 37.011719 C 19.4375 36.972656 19.390625 36.953125 19.335938 36.953125 " fill-opacity="1" fill-rule="nonzero"/><path fill="#26d5dc" d="M 21.710938 34.960938 C 21.867188 34.785156 22.082031 34.699219 22.359375 34.699219 C 22.566406 34.699219 22.738281 34.746094 22.871094 34.835938 C 23.003906 34.929688 23.113281 35.078125 23.195312 35.285156 C 23.222656 35.351562 23.25 35.398438 23.277344 35.421875 C 23.304688 35.445312 23.347656 35.457031 23.40625 35.457031 L 24.132812 35.457031 C 24.1875 35.457031 24.238281 35.4375 24.277344 35.402344 C 24.316406 35.363281 24.335938 35.316406 24.332031 35.261719 C 24.320312 35.0625 24.242188 34.847656 24.097656 34.628906 C 23.953125 34.40625 23.730469 34.222656 23.433594 34.070312 C 23.136719 33.917969 22.773438 33.839844 22.34375 33.839844 C 21.746094 33.839844 21.265625 34.007812 20.910156 34.339844 C 20.550781 34.671875 20.363281 35.132812 20.339844 35.71875 L 20.332031 36.046875 L 20.339844 36.375 C 20.363281 36.960938 20.550781 37.421875 20.910156 37.753906 C 21.265625 38.089844 21.746094 38.253906 22.34375 38.253906 C 22.785156 38.253906 23.152344 38.175781 23.449219 38.015625 C 23.742188 37.859375 23.960938 37.667969 24.101562 37.449219 C 24.242188 37.226562 24.320312 37.023438 24.332031 36.832031 C 24.335938 36.777344 24.316406 36.730469 24.277344 36.691406 C 24.238281 36.65625 24.1875 36.636719 24.132812 36.636719 L 23.40625 36.636719 C 23.347656 36.636719 23.300781 36.648438 23.273438 36.675781 C 23.242188 36.703125 23.214844 36.746094 23.195312 36.808594 C 23.113281 37.019531 23.007812 37.171875 22.875 37.261719 C 22.746094 37.351562 22.574219 37.394531 22.359375 37.394531 C 21.792969 37.394531 21.492188 37.042969 21.460938 36.332031 L 21.453125 36.0625 L 21.460938 35.761719 C 21.472656 35.402344 21.554688 35.132812 21.710938 34.960938 " fill-opacity="1" fill-rule="nonzero"/><path fill="#26d5dc" d="M 27.984375 36.367188 C 27.972656 36.714844 27.890625 36.980469 27.734375 37.160156 C 27.578125 37.339844 27.359375 37.429688 27.070312 37.429688 C 26.78125 37.429688 26.554688 37.339844 26.398438 37.160156 C 26.242188 36.980469 26.15625 36.714844 26.144531 36.367188 L 26.136719 36.046875 L 26.144531 35.726562 C 26.15625 35.378906 26.242188 35.113281 26.398438 34.929688 C 26.554688 34.75 26.78125 34.65625 27.070312 34.65625 C 27.351562 34.65625 27.574219 34.75 27.730469 34.929688 C 27.890625 35.113281 27.972656 35.378906 27.984375 35.726562 C 27.988281 35.78125 27.992188 35.890625 27.992188 36.046875 C 27.992188 36.207031 27.988281 36.3125 27.984375 36.367188 Z M 28.539062 34.335938 C 28.1875 34.003906 27.695312 33.839844 27.070312 33.839844 C 26.4375 33.839844 25.945312 34.003906 25.589844 34.335938 C 25.234375 34.664062 25.042969 35.113281 25.015625 35.6875 L 25.007812 36.046875 L 25.015625 36.40625 C 25.042969 36.984375 25.230469 37.4375 25.582031 37.765625 C 25.929688 38.089844 26.425781 38.253906 27.070312 38.253906 C 27.707031 38.253906 28.199219 38.089844 28.546875 37.765625 C 28.898438 37.4375 29.085938 36.984375 29.113281 36.40625 C 29.117188 36.339844 29.121094 36.222656 29.121094 36.046875 C 29.121094 35.871094 29.117188 35.753906 29.113281 35.6875 C 29.085938 35.113281 28.894531 34.664062 28.539062 34.335938 " fill-opacity="1" fill-rule="nonzero"/><path fill="#26d5dc" d="M 34.851562 33.839844 C 34.574219 33.839844 34.3125 33.90625 34.074219 34.039062 C 33.835938 34.171875 33.648438 34.347656 33.519531 34.566406 C 33.277344 34.082031 32.855469 33.839844 32.25 33.839844 C 31.753906 33.839844 31.359375 34.023438 31.066406 34.394531 L 31.066406 34.117188 C 31.066406 34.058594 31.046875 34.011719 31.011719 33.976562 C 30.976562 33.9375 30.929688 33.921875 30.871094 33.921875 L 30.222656 33.921875 C 30.167969 33.921875 30.125 33.9375 30.085938 33.976562 C 30.046875 34.011719 30.027344 34.058594 30.027344 34.117188 L 30.027344 37.976562 C 30.027344 38.03125 30.046875 38.078125 30.085938 38.113281 C 30.125 38.152344 30.167969 38.171875 30.222656 38.171875 L 30.917969 38.171875 C 30.980469 38.171875 31.027344 38.152344 31.0625 38.113281 C 31.097656 38.078125 31.113281 38.03125 31.113281 37.976562 L 31.113281 35.695312 C 31.113281 35.359375 31.191406 35.109375 31.339844 34.957031 C 31.488281 34.800781 31.671875 34.722656 31.882812 34.722656 C 32.113281 34.722656 32.300781 34.800781 32.449219 34.957031 C 32.59375 35.109375 32.667969 35.359375 32.667969 35.695312 L 32.667969 37.976562 C 32.667969 38.03125 32.6875 38.078125 32.726562 38.113281 C 32.765625 38.152344 32.808594 38.171875 32.863281 38.171875 L 33.550781 38.171875 C 33.609375 38.171875 33.660156 38.152344 33.695312 38.113281 C 33.730469 38.078125 33.746094 38.03125 33.746094 37.976562 L 33.746094 35.695312 C 33.746094 35.359375 33.824219 35.109375 33.972656 34.957031 C 34.121094 34.800781 34.304688 34.722656 34.515625 34.722656 C 34.75 34.722656 34.941406 34.800781 35.085938 34.953125 C 35.226562 35.105469 35.300781 35.351562 35.300781 35.695312 L 35.300781 37.976562 C 35.300781 38.03125 35.320312 38.078125 35.359375 38.113281 C 35.394531 38.152344 35.441406 38.171875 35.496094 38.171875 L 36.175781 38.171875 C 36.234375 38.171875 36.28125 38.152344 36.320312 38.113281 C 36.355469 38.078125 36.371094 38.03125 36.371094 37.976562 L 36.371094 35.628906 C 36.371094 35.046875 36.230469 34.601562 35.945312 34.296875 C 35.664062 33.992188 35.296875 33.839844 34.851562 33.839844 " fill-opacity="1" fill-rule="nonzero"/><g clip-path="url(#435aeb7a6b)"><path fill="#26d5dc" d="M 1.367188 16.164062 C 1.367188 14.726562 2.535156 13.558594 3.972656 13.558594 L 17.105469 13.558594 C 18.542969 13.558594 19.714844 14.726562 19.714844 16.164062 C 19.714844 17.601562 18.542969 18.769531 17.105469 18.769531 L 3.972656 18.769531 C 2.535156 18.769531 1.367188 17.601562 1.367188 16.164062 Z M 20.546875 16.164062 C 20.546875 14.265625 19.003906 12.722656 17.105469 12.722656 L 3.972656 12.722656 C 2.078125 12.722656 0.53125 14.265625 0.53125 16.164062 C 0.53125 18.0625 2.078125 19.605469 3.972656 19.605469 L 17.105469 19.605469 C 19.003906 19.605469 20.546875 18.0625 20.546875 16.164062 " fill-opacity="1" fill-rule="nonzero"/></g><path fill="#26d5dc" d="M 4.6875 16.914062 L 4.085938 16.914062 C 4.042969 16.914062 4.011719 16.929688 3.984375 16.957031 C 3.953125 16.984375 3.941406 17.019531 3.941406 17.058594 L 3.941406 17.660156 C 3.941406 17.703125 3.953125 17.734375 3.984375 17.761719 C 4.011719 17.792969 4.042969 17.804688 4.085938 17.804688 L 4.6875 17.804688 C 4.730469 17.804688 4.765625 17.792969 4.792969 17.761719 C 4.816406 17.734375 4.832031 17.703125 4.832031 17.660156 L 4.832031 17.058594 C 4.832031 17.019531 4.816406 16.984375 4.789062 16.957031 C 4.761719 16.929688 4.726562 16.914062 4.6875 16.914062 " fill-opacity="1" fill-rule="nonzero"/><path fill="#26d5dc" d="M 6.421875 15.457031 C 6.535156 15.332031 6.695312 15.265625 6.898438 15.265625 C 7.046875 15.265625 7.171875 15.300781 7.269531 15.367188 C 7.367188 15.4375 7.445312 15.546875 7.507812 15.695312 C 7.527344 15.746094 7.546875 15.777344 7.566406 15.796875 C 7.585938 15.8125 7.617188 15.824219 7.660156 15.824219 L 8.195312 15.824219 C 8.234375 15.824219 8.269531 15.808594 8.296875 15.78125 C 8.328125 15.753906 8.339844 15.71875 8.335938 15.679688 C 8.328125 15.53125 8.273438 15.378906 8.167969 15.214844 C 8.0625 15.054688 7.898438 14.917969 7.683594 14.808594 C 7.464844 14.695312 7.199219 14.640625 6.886719 14.640625 C 6.449219 14.640625 6.097656 14.761719 5.835938 15.003906 C 5.578125 15.246094 5.4375 15.582031 5.421875 16.011719 L 5.414062 16.253906 L 5.421875 16.492188 C 5.4375 16.921875 5.578125 17.257812 5.835938 17.5 C 6.097656 17.742188 6.449219 17.863281 6.886719 17.863281 C 7.207031 17.863281 7.476562 17.808594 7.691406 17.691406 C 7.90625 17.578125 8.066406 17.4375 8.167969 17.277344 C 8.273438 17.117188 8.328125 16.964844 8.335938 16.824219 C 8.339844 16.785156 8.328125 16.753906 8.296875 16.722656 C 8.269531 16.695312 8.234375 16.683594 8.195312 16.683594 L 7.660156 16.683594 C 7.617188 16.683594 7.585938 16.691406 7.5625 16.710938 C 7.542969 16.730469 7.523438 16.765625 7.507812 16.808594 C 7.445312 16.964844 7.367188 17.074219 7.273438 17.140625 C 7.179688 17.207031 7.050781 17.238281 6.898438 17.238281 C 6.484375 17.238281 6.265625 16.980469 6.242188 16.460938 L 6.234375 16.265625 L 6.242188 16.042969 C 6.25 15.78125 6.308594 15.585938 6.421875 15.457031 " fill-opacity="1" fill-rule="nonzero"/><path fill="#26d5dc" d="M 11.007812 16.484375 C 11 16.742188 10.9375 16.933594 10.824219 17.066406 C 10.710938 17.195312 10.546875 17.261719 10.335938 17.261719 C 10.125 17.261719 9.964844 17.195312 9.847656 17.066406 C 9.730469 16.933594 9.671875 16.742188 9.664062 16.484375 L 9.65625 16.253906 L 9.664062 16.019531 C 9.671875 15.765625 9.730469 15.570312 9.847656 15.4375 C 9.964844 15.304688 10.125 15.238281 10.335938 15.238281 C 10.542969 15.238281 10.707031 15.304688 10.820312 15.4375 C 10.9375 15.570312 11 15.765625 11.007812 16.019531 C 11.011719 16.058594 11.011719 16.136719 11.011719 16.253906 C 11.011719 16.367188 11.011719 16.445312 11.007812 16.484375 Z M 11.414062 15 C 11.152344 14.761719 10.796875 14.640625 10.335938 14.640625 C 9.875 14.640625 9.515625 14.761719 9.257812 15 C 8.996094 15.242188 8.859375 15.570312 8.839844 15.988281 L 8.832031 16.253906 L 8.839844 16.515625 C 8.859375 16.9375 8.996094 17.269531 9.25 17.507812 C 9.503906 17.746094 9.867188 17.863281 10.335938 17.863281 C 10.804688 17.863281 11.164062 17.746094 11.417969 17.507812 C 11.671875 17.269531 11.8125 16.9375 11.832031 16.515625 C 11.835938 16.46875 11.835938 16.378906 11.835938 16.253906 C 11.835938 16.125 11.835938 16.039062 11.832031 15.988281 C 11.8125 15.570312 11.671875 15.242188 11.414062 15 " fill-opacity="1" fill-rule="nonzero"/><path fill="#26d5dc" d="M 17.132812 15.949219 C 17.132812 15.523438 17.03125 15.199219 16.824219 14.972656 C 16.617188 14.75 16.351562 14.640625 16.023438 14.640625 C 15.820312 14.640625 15.632812 14.6875 15.457031 14.785156 C 15.28125 14.882812 15.144531 15.011719 15.050781 15.171875 C 14.875 14.816406 14.566406 14.640625 14.125 14.640625 C 13.761719 14.640625 13.472656 14.773438 13.257812 15.046875 L 13.257812 14.84375 C 13.257812 14.800781 13.246094 14.765625 13.21875 14.738281 C 13.191406 14.710938 13.160156 14.699219 13.113281 14.699219 L 12.644531 14.699219 C 12.601562 14.699219 12.570312 14.710938 12.542969 14.738281 C 12.511719 14.765625 12.5 14.800781 12.5 14.84375 L 12.5 17.660156 C 12.5 17.703125 12.511719 17.734375 12.542969 17.761719 C 12.570312 17.792969 12.601562 17.804688 12.644531 17.804688 L 13.152344 17.804688 C 13.195312 17.804688 13.230469 17.792969 13.253906 17.761719 C 13.28125 17.734375 13.292969 17.703125 13.292969 17.660156 L 13.292969 15.996094 C 13.292969 15.75 13.347656 15.570312 13.457031 15.453125 C 13.566406 15.339844 13.699219 15.285156 13.855469 15.285156 C 14.023438 15.285156 14.160156 15.339844 14.265625 15.453125 C 14.375 15.570312 14.429688 15.75 14.429688 15.996094 L 14.429688 17.660156 C 14.429688 17.703125 14.441406 17.734375 14.46875 17.761719 C 14.5 17.792969 14.53125 17.804688 14.570312 17.804688 L 15.074219 17.804688 C 15.117188 17.804688 15.152344 17.792969 15.179688 17.761719 C 15.203125 17.734375 15.21875 17.703125 15.21875 17.660156 L 15.21875 15.996094 C 15.21875 15.75 15.273438 15.570312 15.382812 15.453125 C 15.492188 15.339844 15.625 15.285156 15.777344 15.285156 C 15.949219 15.285156 16.089844 15.339844 16.195312 15.453125 C 16.300781 15.5625 16.351562 15.746094 16.351562 15.996094 L 16.351562 17.660156 C 16.351562 17.703125 16.367188 17.734375 16.394531 17.761719 C 16.421875 17.792969 16.457031 17.804688 16.496094 17.804688 L 16.992188 17.804688 C 17.035156 17.804688 17.070312 17.792969 17.09375 17.761719 C 17.121094 17.734375 17.132812 17.703125 17.132812 17.660156 L 17.132812 15.949219 " fill-opacity="1" fill-rule="nonzero"/><g clip-path="url(#56c3200800)"><path fill="#26d5dc" d="M 21.808594 5.921875 L 34.941406 5.921875 C 36.378906 5.921875 37.546875 7.089844 37.546875 8.527344 C 37.546875 9.964844 36.378906 11.132812 34.941406 11.132812 L 21.808594 11.132812 C 20.371094 11.132812 19.203125 9.964844 19.203125 8.527344 C 19.203125 7.089844 20.371094 5.921875 21.808594 5.921875 Z M 21.808594 11.96875 L 34.941406 11.96875 C 36.839844 11.96875 38.382812 10.425781 38.382812 8.527344 C 38.382812 6.628906 36.839844 5.085938 34.941406 5.085938 L 21.808594 5.085938 C 19.910156 5.085938 18.367188 6.628906 18.367188 8.527344 C 18.367188 10.425781 19.910156 11.96875 21.808594 11.96875 " fill-opacity="1" fill-rule="nonzero"/></g><path fill="#26d5dc" d="M 21.917969 10.171875 L 22.523438 10.171875 C 22.566406 10.171875 22.601562 10.15625 22.625 10.128906 C 22.652344 10.101562 22.664062 10.066406 22.664062 10.027344 L 22.664062 9.421875 C 22.664062 9.382812 22.652344 9.351562 22.625 9.320312 C 22.597656 9.292969 22.5625 9.28125 22.523438 9.28125 L 21.917969 9.28125 C 21.878906 9.28125 21.84375 9.292969 21.816406 9.320312 C 21.789062 9.351562 21.777344 9.382812 21.777344 9.421875 L 21.777344 10.027344 C 21.777344 10.066406 21.789062 10.101562 21.816406 10.128906 C 21.84375 10.15625 21.878906 10.171875 21.917969 10.171875 " fill-opacity="1" fill-rule="nonzero"/><path fill="#26d5dc" d="M 23.671875 9.867188 C 23.933594 10.109375 24.28125 10.230469 24.71875 10.230469 C 25.042969 10.230469 25.3125 10.171875 25.527344 10.054688 C 25.742188 9.941406 25.902344 9.800781 26.003906 9.640625 C 26.109375 9.480469 26.164062 9.328125 26.171875 9.191406 C 26.175781 9.152344 26.164062 9.117188 26.132812 9.089844 C 26.101562 9.0625 26.066406 9.046875 26.027344 9.046875 L 25.496094 9.046875 C 25.453125 9.046875 25.417969 9.058594 25.398438 9.078125 C 25.375 9.097656 25.355469 9.128906 25.339844 9.171875 C 25.28125 9.328125 25.203125 9.4375 25.109375 9.503906 C 25.011719 9.570312 24.886719 9.601562 24.730469 9.601562 C 24.316406 9.601562 24.097656 9.34375 24.074219 8.824219 L 24.070312 8.628906 L 24.074219 8.40625 C 24.082031 8.144531 24.144531 7.949219 24.257812 7.824219 C 24.371094 7.695312 24.527344 7.632812 24.730469 7.632812 C 24.882812 7.632812 25.007812 7.664062 25.105469 7.734375 C 25.203125 7.800781 25.28125 7.910156 25.339844 8.0625 C 25.359375 8.109375 25.382812 8.140625 25.402344 8.160156 C 25.421875 8.179688 25.453125 8.1875 25.496094 8.1875 L 26.027344 8.1875 C 26.066406 8.1875 26.101562 8.171875 26.132812 8.144531 C 26.164062 8.117188 26.175781 8.082031 26.171875 8.042969 C 26.164062 7.894531 26.105469 7.742188 26 7.582031 C 25.894531 7.417969 25.734375 7.28125 25.515625 7.171875 C 25.300781 7.058594 25.035156 7.003906 24.71875 7.003906 C 24.28125 7.003906 23.933594 7.125 23.671875 7.367188 C 23.410156 7.613281 23.273438 7.949219 23.257812 8.378906 L 23.25 8.617188 L 23.257812 8.855469 C 23.273438 9.285156 23.410156 9.621094 23.671875 9.867188 " fill-opacity="1" fill-rule="nonzero"/><path fill="#26d5dc" d="M 27.496094 8.382812 C 27.503906 8.128906 27.566406 7.933594 27.683594 7.800781 C 27.796875 7.667969 27.960938 7.601562 28.171875 7.601562 C 28.378906 7.601562 28.539062 7.667969 28.65625 7.800781 C 28.773438 7.933594 28.832031 8.128906 28.839844 8.382812 C 28.84375 8.425781 28.847656 8.5 28.847656 8.617188 C 28.847656 8.734375 28.84375 8.808594 28.839844 8.851562 C 28.832031 9.105469 28.773438 9.296875 28.660156 9.429688 C 28.546875 9.5625 28.382812 9.625 28.171875 9.625 C 27.960938 9.625 27.796875 9.5625 27.683594 9.429688 C 27.566406 9.296875 27.503906 9.105469 27.496094 8.851562 L 27.492188 8.617188 Z M 27.085938 9.871094 C 27.339844 10.109375 27.703125 10.230469 28.171875 10.230469 C 28.636719 10.230469 29 10.109375 29.253906 9.871094 C 29.507812 9.632812 29.644531 9.300781 29.664062 8.878906 C 29.667969 8.832031 29.671875 8.746094 29.671875 8.617188 C 29.671875 8.488281 29.667969 8.402344 29.664062 8.355469 C 29.644531 7.9375 29.507812 7.605469 29.246094 7.367188 C 28.988281 7.125 28.628906 7.003906 28.171875 7.003906 C 27.710938 7.003906 27.351562 7.125 27.089844 7.367188 C 26.832031 7.605469 26.691406 7.9375 26.671875 8.355469 L 26.667969 8.617188 L 26.671875 8.878906 C 26.691406 9.300781 26.832031 9.632812 27.085938 9.871094 " fill-opacity="1" fill-rule="nonzero"/><path fill="#26d5dc" d="M 30.476562 10.171875 L 30.984375 10.171875 C 31.027344 10.171875 31.0625 10.15625 31.089844 10.128906 C 31.117188 10.101562 31.128906 10.066406 31.128906 10.027344 L 31.128906 8.359375 C 31.128906 8.113281 31.183594 7.933594 31.292969 7.820312 C 31.402344 7.707031 31.535156 7.648438 31.691406 7.648438 C 31.855469 7.648438 31.996094 7.707031 32.101562 7.820312 C 32.210938 7.933594 32.261719 8.113281 32.261719 8.359375 L 32.261719 10.027344 C 32.261719 10.066406 32.277344 10.101562 32.304688 10.128906 C 32.332031 10.15625 32.367188 10.171875 32.40625 10.171875 L 32.910156 10.171875 C 32.953125 10.171875 32.988281 10.15625 33.011719 10.128906 C 33.039062 10.101562 33.050781 10.066406 33.050781 10.027344 L 33.050781 8.359375 C 33.050781 8.113281 33.105469 7.933594 33.214844 7.820312 C 33.324219 7.707031 33.457031 7.648438 33.613281 7.648438 C 33.785156 7.648438 33.921875 7.707031 34.027344 7.816406 C 34.132812 7.929688 34.1875 8.109375 34.1875 8.359375 L 34.1875 10.027344 C 34.1875 10.066406 34.199219 10.101562 34.226562 10.128906 C 34.257812 10.15625 34.289062 10.171875 34.328125 10.171875 L 34.824219 10.171875 C 34.871094 10.171875 34.902344 10.15625 34.929688 10.128906 C 34.957031 10.101562 34.96875 10.066406 34.96875 10.027344 L 34.96875 8.3125 C 34.96875 7.886719 34.867188 7.5625 34.660156 7.339844 C 34.453125 7.117188 34.183594 7.003906 33.859375 7.003906 C 33.65625 7.003906 33.464844 7.054688 33.289062 7.152344 C 33.117188 7.25 32.980469 7.375 32.882812 7.535156 C 32.710938 7.179688 32.402344 7.003906 31.957031 7.003906 C 31.597656 7.003906 31.308594 7.140625 31.09375 7.410156 L 31.09375 7.207031 C 31.09375 7.164062 31.078125 7.128906 31.054688 7.101562 C 31.027344 7.078125 30.992188 7.0625 30.949219 7.0625 L 30.476562 7.0625 C 30.4375 7.0625 30.402344 7.078125 30.375 7.101562 C 30.347656 7.128906 30.335938 7.164062 30.335938 7.207031 L 30.335938 10.027344 C 30.335938 10.066406 30.347656 10.101562 30.375 10.128906 C 30.402344 10.15625 30.4375 10.171875 30.476562 10.171875 " fill-opacity="1" fill-rule="nonzero"/><path fill="#26d5dc" d="M 5.84375 26.058594 C 5.84375 24.410156 7.183594 23.070312 8.832031 23.070312 L 23.632812 23.070312 C 25.28125 23.070312 26.621094 24.410156 26.621094 26.058594 C 26.621094 27.707031 25.28125 29.050781 23.632812 29.050781 L 8.832031 29.050781 C 7.183594 29.050781 5.84375 27.707031 5.84375 26.058594 Z M 27.457031 26.058594 C 27.457031 23.949219 25.742188 22.234375 23.632812 22.234375 L 8.832031 22.234375 C 6.722656 22.234375 5.007812 23.949219 5.007812 26.058594 C 5.007812 28.167969 6.722656 29.882812 8.832031 29.882812 L 23.632812 29.882812 C 25.742188 29.882812 27.457031 28.167969 27.457031 26.058594 " fill-opacity="1" fill-rule="nonzero"/><path fill="#26d5dc" d="M 11.707031 26.996094 L 11.109375 26.996094 C 11.070312 26.996094 11.035156 27.011719 11.007812 27.039062 C 10.980469 27.066406 10.96875 27.101562 10.96875 27.140625 L 10.96875 27.738281 C 10.96875 27.777344 10.980469 27.808594 11.007812 27.835938 C 11.035156 27.863281 11.070312 27.878906 11.109375 27.878906 L 11.707031 27.878906 C 11.75 27.878906 11.785156 27.863281 11.808594 27.835938 C 11.835938 27.808594 11.847656 27.777344 11.847656 27.738281 L 11.847656 27.140625 C 11.847656 27.101562 11.835938 27.066406 11.808594 27.039062 C 11.78125 27.011719 11.746094 26.996094 11.707031 26.996094 " fill-opacity="1" fill-rule="nonzero"/><path fill="#26d5dc" d="M 14.355469 24.746094 C 13.9375 24.746094 13.609375 24.894531 13.367188 25.1875 L 13.367188 24.945312 C 13.367188 24.902344 13.355469 24.867188 13.328125 24.84375 C 13.304688 24.816406 13.269531 24.804688 13.226562 24.804688 L 12.734375 24.804688 C 12.695312 24.804688 12.664062 24.816406 12.632812 24.84375 C 12.605469 24.867188 12.59375 24.902344 12.59375 24.945312 L 12.59375 27.738281 C 12.59375 27.777344 12.605469 27.808594 12.632812 27.835938 C 12.664062 27.863281 12.695312 27.878906 12.734375 27.878906 L 13.261719 27.878906 C 13.304688 27.878906 13.339844 27.863281 13.363281 27.835938 C 13.390625 27.808594 13.402344 27.777344 13.402344 27.738281 L 13.402344 26.109375 C 13.402344 25.886719 13.464844 25.707031 13.585938 25.578125 C 13.707031 25.449219 13.871094 25.382812 14.070312 25.382812 C 14.28125 25.382812 14.441406 25.449219 14.554688 25.574219 C 14.664062 25.703125 14.722656 25.882812 14.722656 26.109375 L 14.722656 27.738281 C 14.722656 27.777344 14.734375 27.808594 14.761719 27.835938 C 14.789062 27.863281 14.824219 27.878906 14.863281 27.878906 L 15.394531 27.878906 C 15.4375 27.878906 15.472656 27.863281 15.5 27.835938 C 15.523438 27.808594 15.539062 27.777344 15.539062 27.738281 L 15.539062 26.074219 C 15.539062 25.660156 15.429688 25.335938 15.21875 25.097656 C 15.003906 24.863281 14.71875 24.746094 14.355469 24.746094 " fill-opacity="1" fill-rule="nonzero"/><path fill="#26d5dc" d="M 18.261719 26.070312 L 16.96875 26.070312 L 16.96875 26.058594 C 16.96875 25.824219 17.027344 25.640625 17.140625 25.5 C 17.253906 25.359375 17.410156 25.289062 17.613281 25.289062 C 17.8125 25.289062 17.972656 25.359375 18.089844 25.5 C 18.207031 25.640625 18.261719 25.824219 18.261719 26.058594 Z M 17.613281 24.746094 C 17.15625 24.746094 16.796875 24.886719 16.539062 25.171875 C 16.28125 25.453125 16.152344 25.84375 16.152344 26.335938 L 16.160156 26.484375 C 16.175781 26.949219 16.3125 27.308594 16.570312 27.558594 C 16.828125 27.8125 17.175781 27.9375 17.617188 27.9375 C 17.894531 27.9375 18.136719 27.890625 18.347656 27.796875 C 18.554688 27.703125 18.714844 27.589844 18.828125 27.460938 C 18.941406 27.332031 18.996094 27.222656 18.996094 27.128906 C 18.996094 27.09375 18.984375 27.066406 18.957031 27.042969 C 18.933594 27.023438 18.902344 27.015625 18.867188 27.015625 L 18.347656 27.015625 C 18.300781 27.015625 18.265625 27.019531 18.246094 27.03125 C 18.226562 27.039062 18.199219 27.066406 18.164062 27.109375 C 18.019531 27.292969 17.835938 27.382812 17.613281 27.382812 C 17.414062 27.382812 17.261719 27.308594 17.148438 27.167969 C 17.035156 27.023438 16.976562 26.839844 16.96875 26.617188 L 16.96875 26.570312 L 18.929688 26.570312 C 18.976562 26.570312 19.011719 26.558594 19.039062 26.53125 C 19.066406 26.503906 19.078125 26.46875 19.078125 26.429688 L 19.078125 26.304688 C 19.078125 25.832031 18.953125 25.453125 18.699219 25.171875 C 18.445312 24.886719 18.082031 24.746094 17.613281 24.746094 " fill-opacity="1" fill-rule="nonzero"/><path fill="#26d5dc" d="M 21.574219 27.222656 L 21.160156 27.222656 C 21.027344 27.222656 20.929688 27.179688 20.871094 27.09375 C 20.8125 27.003906 20.78125 26.878906 20.78125 26.707031 L 20.78125 25.4375 L 21.519531 25.4375 C 21.5625 25.4375 21.59375 25.421875 21.621094 25.394531 C 21.648438 25.367188 21.664062 25.335938 21.664062 25.292969 L 21.664062 24.945312 C 21.664062 24.90625 21.648438 24.871094 21.621094 24.84375 C 21.59375 24.816406 21.5625 24.804688 21.519531 24.804688 L 20.78125 24.804688 L 20.78125 23.824219 C 20.78125 23.777344 20.769531 23.746094 20.742188 23.71875 C 20.71875 23.695312 20.683594 23.679688 20.640625 23.679688 L 20.148438 23.679688 C 20.109375 23.679688 20.078125 23.695312 20.050781 23.71875 C 20.019531 23.746094 20.007812 23.777344 20.007812 23.824219 L 20.007812 24.804688 L 19.539062 24.804688 C 19.5 24.804688 19.46875 24.816406 19.441406 24.84375 C 19.414062 24.871094 19.398438 24.90625 19.398438 24.945312 L 19.398438 25.292969 C 19.398438 25.335938 19.414062 25.367188 19.441406 25.394531 C 19.46875 25.421875 19.5 25.4375 19.539062 25.4375 L 20.007812 25.4375 L 20.007812 26.773438 C 20.007812 27.136719 20.097656 27.410156 20.28125 27.597656 C 20.460938 27.785156 20.730469 27.878906 21.089844 27.878906 L 21.574219 27.878906 C 21.617188 27.878906 21.652344 27.863281 21.679688 27.835938 C 21.703125 27.808594 21.714844 27.777344 21.714844 27.738281 L 21.714844 27.363281 C 21.714844 27.320312 21.703125 27.285156 21.679688 27.261719 C 21.652344 27.234375 21.617188 27.222656 21.574219 27.222656 " fill-opacity="1" fill-rule="nonzero"/><g clip-path="url(#c0a2aff6ee)"><path fill="#26d5dc" d="M 41.238281 21.988281 L 29.03125 21.988281 C 27.714844 21.988281 26.640625 20.917969 26.640625 19.597656 C 26.640625 18.277344 27.714844 17.203125 29.03125 17.203125 L 41.238281 17.203125 C 42.558594 17.203125 43.632812 18.277344 43.632812 19.597656 C 43.632812 20.917969 42.558594 21.988281 41.238281 21.988281 Z M 41.238281 16.367188 L 29.03125 16.367188 C 27.253906 16.367188 25.804688 17.816406 25.804688 19.597656 C 25.804688 21.375 27.253906 22.824219 29.03125 22.824219 L 41.238281 22.824219 C 43.019531 22.824219 44.46875 21.375 44.46875 19.597656 C 44.46875 17.816406 43.019531 16.367188 41.238281 16.367188 " fill-opacity="1" fill-rule="nonzero"/></g><path fill="#26d5dc" d="M 30.445312 19.960938 L 29.9375 19.960938 C 29.90625 19.960938 29.875 19.972656 29.851562 19.996094 C 29.828125 20.019531 29.816406 20.050781 29.816406 20.082031 L 29.816406 20.589844 C 29.816406 20.625 29.828125 20.652344 29.851562 20.675781 C 29.875 20.699219 29.90625 20.710938 29.9375 20.710938 L 30.445312 20.710938 C 30.484375 20.710938 30.511719 20.699219 30.535156 20.675781 C 30.554688 20.652344 30.566406 20.625 30.566406 20.589844 L 30.566406 20.082031 C 30.566406 20.050781 30.554688 20.019531 30.53125 19.996094 C 30.507812 19.972656 30.480469 19.960938 30.445312 19.960938 " fill-opacity="1" fill-rule="nonzero"/><path fill="#26d5dc" d="M 32.890625 19.601562 C 32.882812 19.816406 32.832031 19.976562 32.738281 20.089844 C 32.640625 20.199219 32.503906 20.253906 32.328125 20.253906 C 32.148438 20.253906 32.011719 20.199219 31.914062 20.089844 C 31.816406 19.976562 31.765625 19.816406 31.757812 19.601562 L 31.753906 19.402344 L 31.757812 19.207031 C 31.765625 18.992188 31.816406 18.828125 31.914062 18.71875 C 32.011719 18.605469 32.148438 18.550781 32.328125 18.550781 C 32.503906 18.550781 32.636719 18.605469 32.734375 18.71875 C 32.832031 18.828125 32.882812 18.992188 32.890625 19.207031 C 32.894531 19.242188 32.894531 19.308594 32.894531 19.402344 C 32.894531 19.5 32.894531 19.566406 32.890625 19.601562 Z M 33.234375 18.351562 C 33.015625 18.148438 32.714844 18.046875 32.328125 18.046875 C 31.9375 18.046875 31.636719 18.148438 31.417969 18.351562 C 31.199219 18.554688 31.082031 18.832031 31.066406 19.183594 L 31.058594 19.402344 L 31.066406 19.625 C 31.082031 19.980469 31.199219 20.257812 31.414062 20.460938 C 31.625 20.660156 31.933594 20.761719 32.328125 20.761719 C 32.71875 20.761719 33.023438 20.660156 33.238281 20.460938 C 33.453125 20.257812 33.570312 19.980469 33.585938 19.625 C 33.589844 19.585938 33.589844 19.511719 33.589844 19.402344 C 33.589844 19.296875 33.589844 19.222656 33.585938 19.183594 C 33.570312 18.832031 33.449219 18.554688 33.234375 18.351562 " fill-opacity="1" fill-rule="nonzero"/><path fill="#26d5dc" d="M 35.742188 18.097656 L 35.53125 18.097656 C 35.214844 18.097656 34.976562 18.207031 34.808594 18.429688 L 34.808594 18.222656 C 34.808594 18.183594 34.796875 18.15625 34.773438 18.132812 C 34.75 18.109375 34.71875 18.097656 34.683594 18.097656 L 34.269531 18.097656 C 34.234375 18.097656 34.207031 18.109375 34.183594 18.132812 C 34.160156 18.15625 34.148438 18.183594 34.148438 18.222656 L 34.148438 20.589844 C 34.148438 20.625 34.160156 20.652344 34.183594 20.675781 C 34.207031 20.699219 34.234375 20.710938 34.269531 20.710938 L 34.71875 20.710938 C 34.75 20.710938 34.777344 20.699219 34.800781 20.675781 C 34.824219 20.652344 34.835938 20.625 34.835938 20.589844 L 34.835938 19.214844 C 34.835938 19.054688 34.882812 18.929688 34.972656 18.839844 C 35.0625 18.75 35.1875 18.703125 35.34375 18.703125 L 35.742188 18.703125 C 35.78125 18.703125 35.808594 18.691406 35.832031 18.667969 C 35.851562 18.644531 35.863281 18.617188 35.863281 18.585938 L 35.863281 18.21875 C 35.863281 18.179688 35.851562 18.152344 35.832031 18.128906 C 35.808594 18.105469 35.78125 18.097656 35.742188 18.097656 " fill-opacity="1" fill-rule="nonzero"/><path fill="#26d5dc" d="M 37.957031 19.535156 C 37.945312 19.710938 37.894531 19.855469 37.800781 19.976562 C 37.707031 20.097656 37.566406 20.160156 37.378906 20.160156 C 36.992188 20.160156 36.800781 19.898438 36.800781 19.375 L 36.804688 19.253906 C 36.824219 18.8125 37.015625 18.589844 37.378906 18.589844 C 37.566406 18.589844 37.707031 18.648438 37.800781 18.769531 C 37.894531 18.890625 37.945312 19.039062 37.957031 19.214844 C 37.960938 19.238281 37.960938 19.292969 37.960938 19.375 C 37.960938 19.453125 37.960938 19.507812 37.957031 19.535156 Z M 38.609375 18.132812 C 38.585938 18.109375 38.558594 18.097656 38.523438 18.097656 L 38.113281 18.097656 C 38.078125 18.097656 38.050781 18.109375 38.023438 18.132812 C 38 18.15625 37.984375 18.183594 37.984375 18.222656 L 37.984375 18.417969 C 37.898438 18.304688 37.789062 18.214844 37.652344 18.148438 C 37.519531 18.078125 37.363281 18.046875 37.1875 18.046875 C 36.839844 18.046875 36.578125 18.15625 36.402344 18.371094 C 36.222656 18.589844 36.128906 18.878906 36.113281 19.238281 L 36.109375 19.375 L 36.113281 19.511719 C 36.128906 19.875 36.222656 20.164062 36.398438 20.375 C 36.574219 20.585938 36.835938 20.691406 37.1875 20.691406 C 37.519531 20.691406 37.773438 20.585938 37.957031 20.371094 L 37.957031 20.710938 C 37.957031 20.933594 37.910156 21.089844 37.816406 21.175781 C 37.722656 21.265625 37.574219 21.308594 37.371094 21.308594 C 37.21875 21.308594 37.105469 21.28125 37.03125 21.21875 C 36.957031 21.15625 36.902344 21.082031 36.863281 20.992188 C 36.851562 20.953125 36.832031 20.925781 36.8125 20.910156 C 36.789062 20.894531 36.765625 20.886719 36.734375 20.886719 L 36.285156 20.886719 C 36.253906 20.886719 36.222656 20.898438 36.199219 20.921875 C 36.175781 20.941406 36.164062 20.96875 36.164062 21.003906 C 36.164062 21.09375 36.203125 21.203125 36.28125 21.332031 C 36.359375 21.457031 36.488281 21.570312 36.671875 21.671875 C 36.859375 21.769531 37.097656 21.816406 37.398438 21.816406 C 37.816406 21.816406 38.128906 21.714844 38.339844 21.511719 C 38.546875 21.308594 38.648438 21.019531 38.648438 20.648438 L 38.644531 18.222656 C 38.644531 18.183594 38.632812 18.15625 38.609375 18.132812 " fill-opacity="1" fill-rule="nonzero"/></svg>