<svg xmlns="http://www.w3.org/2000/svg" xmlns:xlink="http://www.w3.org/1999/xlink" width="60" zoomAndPan="magnify" viewBox="0 0 45 44.999999" height="60" preserveAspectRatio="xMidYMid meet" version="1.0"><defs><clipPath id="79981272e0"><path d="M 6.75 6.75 L 38.25 6.75 L 38.25 38.25 L 6.75 38.25 Z M 6.75 6.75 " clip-rule="nonzero"/></clipPath></defs><g clip-path="url(#79981272e0)"><path fill="#26d5dc" d="M 38.25 8.984375 C 38.25 7.753906 37.246094 6.75 36.015625 6.75 C 35.113281 6.75 34.308594 7.289062 33.957031 8.121094 L 31.949219 12.917969 C 31.351562 12.355469 30.570312 12 29.71875 12 L 10.03125 12 C 8.222656 12 6.75 13.472656 6.75 15.28125 L 6.75 34.96875 C 6.75 36.777344 8.222656 38.25 10.03125 38.25 L 29.71875 38.25 C 31.527344 38.25 33 36.777344 33 34.96875 L 33 20.601562 L 38.039062 9.96875 C 38.179688 9.675781 38.25 9.351562 38.25 8.984375 Z M 31.6875 34.96875 C 31.6875 36.054688 30.804688 36.9375 29.71875 36.9375 L 10.03125 36.9375 C 8.945312 36.9375 8.0625 36.054688 8.0625 34.96875 L 8.0625 15.28125 C 8.0625 14.195312 8.945312 13.3125 10.03125 13.3125 L 29.71875 13.3125 C 30.410156 13.3125 31.03125 13.6875 31.382812 14.269531 L 29.0625 19.820312 L 29.0625 16.59375 C 29.0625 16.230469 28.769531 15.9375 28.40625 15.9375 L 11.34375 15.9375 C 10.980469 15.9375 10.6875 16.230469 10.6875 16.59375 L 10.6875 21.84375 C 10.6875 22.203125 10.980469 22.5 11.34375 22.5 L 27.941406 22.5 L 27.390625 23.8125 L 21.84375 23.8125 C 21.480469 23.8125 21.1875 24.105469 21.1875 24.46875 L 21.1875 32.34375 C 21.1875 32.359375 21.195312 32.375 21.195312 32.390625 C 20.65625 32.871094 20.328125 33.03125 20.304688 33.039062 C 20.09375 33.117188 19.941406 33.292969 19.890625 33.507812 C 19.839844 33.726562 19.90625 33.960938 20.066406 34.121094 C 21.015625 35.070312 22.328125 35.433594 23.609375 35.433594 C 25.25 35.433594 26.839844 34.839844 27.554688 34.121094 C 28.585938 33.089844 29.34375 31.042969 28.773438 29.519531 L 31.6875 23.371094 Z M 23.347656 28.597656 C 22.9375 29.007812 22.683594 29.429688 22.5 29.84375 L 22.5 25.125 L 26.839844 25.125 L 25.835938 27.53125 C 24.957031 27.515625 24.078125 27.867188 23.347656 28.597656 Z M 22.472656 33 C 23.019531 32.453125 23.214844 31.820312 23.398438 31.207031 C 23.582031 30.609375 23.753906 30.046875 24.277344 29.523438 C 25.203125 28.597656 26.359375 28.597656 27.285156 29.523438 C 28.117188 30.355469 27.480469 32.335938 26.628906 33.191406 C 25.917969 33.898438 23.386719 34.585938 21.691406 33.699219 C 21.917969 33.523438 22.175781 33.296875 22.472656 33 Z M 27.886719 28.324219 C 27.644531 28.128906 27.394531 27.960938 27.128906 27.835938 L 28.898438 23.613281 L 29.890625 24.101562 Z M 27.75 17.25 L 27.75 21.1875 L 12 21.1875 L 12 17.25 Z M 36.851562 9.410156 L 30.449219 22.917969 L 29.402344 22.402344 L 32.730469 14.453125 L 35.167969 8.625 C 35.3125 8.285156 35.644531 8.0625 36.015625 8.0625 C 36.523438 8.0625 36.9375 8.476562 36.9375 9.027344 C 36.9375 9.160156 36.90625 9.292969 36.851562 9.410156 Z M 36.851562 9.410156 " fill-opacity="1" fill-rule="nonzero"/></g><path fill="#26d5dc" d="M 17.90625 23.8125 L 11.34375 23.8125 C 10.980469 23.8125 10.6875 24.105469 10.6875 24.46875 L 10.6875 33.65625 C 10.6875 34.015625 10.980469 34.3125 11.34375 34.3125 L 17.90625 34.3125 C 18.269531 34.3125 18.5625 34.015625 18.5625 33.65625 L 18.5625 24.46875 C 18.5625 24.105469 18.269531 23.8125 17.90625 23.8125 Z M 17.25 33 L 12 33 L 12 25.125 L 17.25 25.125 Z M 17.25 33 " fill-opacity="1" fill-rule="nonzero"/></svg>