<svg xmlns="http://www.w3.org/2000/svg" xmlns:xlink="http://www.w3.org/1999/xlink" width="60" zoomAndPan="magnify" viewBox="0 0 45 44.999999" height="60" preserveAspectRatio="xMidYMid meet" version="1.0"><defs><clipPath id="b373e32656"><path d="M 12.578125 2.703125 L 32.078125 2.703125 L 32.078125 42.453125 L 12.578125 42.453125 Z M 12.578125 2.703125 " clip-rule="nonzero"/></clipPath></defs><path fill="#26d5dc" d="M 22.496094 37.433594 C 21.730469 37.433594 21.109375 38.054688 21.109375 38.820312 C 21.109375 39.582031 21.730469 40.203125 22.496094 40.203125 C 23.257812 40.203125 23.882812 39.582031 23.882812 38.820312 C 23.882812 38.054688 23.257812 37.433594 22.496094 37.433594 " fill-opacity="1" fill-rule="nonzero"/><g clip-path="url(#b373e32656)"><path fill="#26d5dc" d="M 31.242188 35.015625 C 31.242188 35.199219 31.09375 35.347656 30.910156 35.347656 L 14.082031 35.347656 C 13.898438 35.347656 13.75 35.199219 13.75 35.015625 L 13.75 9.984375 C 13.75 9.800781 13.898438 9.648438 14.082031 9.648438 L 30.910156 9.648438 C 31.09375 9.648438 31.242188 9.800781 31.242188 9.984375 Z M 22.496094 40.949219 C 21.320312 40.949219 20.367188 39.992188 20.367188 38.820312 C 20.367188 37.644531 21.320312 36.691406 22.496094 36.691406 C 23.671875 36.691406 24.625 37.644531 24.625 38.820312 C 24.625 39.992188 23.671875 40.949219 22.496094 40.949219 M 20.152344 5.5 C 20.152344 5.316406 20.304688 5.164062 20.488281 5.164062 L 24.503906 5.164062 C 24.6875 5.164062 24.839844 5.316406 24.839844 5.5 L 24.839844 5.945312 C 24.839844 6.128906 24.6875 6.28125 24.503906 6.28125 L 20.488281 6.28125 C 20.304688 6.28125 20.152344 6.128906 20.152344 5.945312 Z M 29.402344 2.746094 L 15.589844 2.746094 C 13.933594 2.746094 12.578125 4.101562 12.578125 5.757812 L 12.578125 39.242188 C 12.578125 40.898438 13.933594 42.253906 15.589844 42.253906 L 29.402344 42.253906 C 31.058594 42.253906 32.414062 40.898438 32.414062 39.242188 L 32.414062 5.757812 C 32.414062 4.101562 31.058594 2.746094 29.402344 2.746094 " fill-opacity="1" fill-rule="nonzero"/></g></svg>